<svg id="Layer_1" data-name="Layer 1" xmlns="http://www.w3.org/2000/svg" viewBox="0 0 360 360"><defs><style>.cls-1{fill:#231f20;}</style></defs><path class="cls-1" d="M211.52,200a214.44,214.44,0,0,0,27.06-88.87c1.24-15.9,1.1-32.38-3-47.89C232,49.63,224.81,36.45,213.67,27.56c-12.16-9.71-27.87-12.89-42.95-14.84a84.19,84.19,0,0,0-23.3-.17,49.52,49.52,0,0,0-21,8.3A86,86,0,0,0,110.05,36a60.22,60.22,0,0,0-11.4,19.38C96,63.09,95.17,71.46,94.71,79.58a158.72,158.72,0,0,0,.57,24.76,207.84,207.84,0,0,0,10.85,47.85,332.12,332.12,0,0,0,19.65,44.44q2.75,5.24,5.62,10.41c1.56,2.82,5.88.3,4.32-2.52a378.09,378.09,0,0,1-20.36-42A226.71,226.71,0,0,1,102,117a158.45,158.45,0,0,1-1.41-47.32c1-7.5,2.87-14.76,6.68-21.33a74.66,74.66,0,0,1,13.26-16.23c5.08-4.85,10.8-9.33,17.39-11.94a55,55,0,0,1,21.62-3.39,129.84,129.84,0,0,1,22.13,2.73c7.26,1.43,14.54,3.36,21.13,6.83,11.66,6.13,20.14,17.05,25,29.17,5.74,14.42,6.79,30.17,6.34,45.54a207.35,207.35,0,0,1-6.18,44.41,208.37,208.37,0,0,1-15.5,42.11q-2.49,5-5.24,9.87c-1.59,2.8,2.73,5.33,4.32,2.52Z"/><path class="cls-1" d="M210,201.93c4.81.12,9,3.44,13.39,5,2.6.89,5.35,1.05,8,1.75a34.05,34.05,0,0,1,7.3,3.11l.6-4.57c-4.73,1.59-10,1.25-14.91,1.39l-16,.47c-3.21.09-3.23,5.09,0,5l16.54-.48c5.21-.15,10.75.13,15.75-1.56,1.93-.65,2.6-3.5.6-4.57a42.88,42.88,0,0,0-7.86-3.44c-2.84-.83-5.83-1-8.63-1.93-5-1.71-9.24-5-14.72-5.13-3.22-.08-3.21,4.92,0,5Z"/><path class="cls-1" d="M132.09,204.33c-8.73,1.4-17.16,4.11-25.55,6.84-2.6.85-2.25,5,.67,4.91a46,46,0,0,1,21.07,4.6,2.57,2.57,0,0,0,3.42-.9,2.53,2.53,0,0,0-.9-3.42,51.41,51.41,0,0,0-23.59-5.28l.66,4.91c8.39-2.73,16.82-5.44,25.55-6.84a2.51,2.51,0,0,0,1.75-3.07,2.57,2.57,0,0,0-3.08-1.75Z"/><path class="cls-1" d="M203.7,213.08q-1.77,26.78-2.2,53.63t.48,53.68q.53,15.15,1.47,30.28l3.16-2.41q-17.25-3.35-34.72-5.4-8.64-1-17.3-1.71a91.75,91.75,0,0,0-15.19-.22A39.51,39.51,0,0,0,123,345.68l3.67,2.82a316.68,316.68,0,0,0,15.66-60.67,302.06,302.06,0,0,0,3.49-62.43c-.15-2.72-.69-5.56-2.84-7.45s-4.86-2.55-7.39-3.42q-8.72-3-17.68-5.19l1.84,2.41c-.44.26-.58.54-.44.83,3.13-.72,1.81-5.54-1.33-4.82a4.25,4.25,0,0,0-3.23,4,2.5,2.5,0,0,0,1.83,2.41q7.66,1.86,15.16,4.33a55.54,55.54,0,0,1,6.62,2.38c1.8.87,2.3,2.19,2.43,4.13a250.73,250.73,0,0,1-.08,30,312.8,312.8,0,0,1-8.83,59.47,315.8,315.8,0,0,1-10,32.67c-.78,2.13,1.9,3.84,3.67,2.83,8.47-4.86,18.62-4.63,28.06-3.93,11,.81,21.94,2.09,32.83,3.74q9.49,1.44,18.93,3.27a2.53,2.53,0,0,0,3.16-2.41q-1.66-26.79-2-53.64t.68-53.67q.58-15.15,1.58-30.28a2.5,2.5,0,1,0-5,0Z"/><path class="cls-1" d="M187.25,57.4a136.42,136.42,0,0,0-12.37,102.79c1.59,5.67,3.68,11.45,7.84,15.61s10.91,6.27,16.11,3.5c4.45-2.36,6.63-7.45,8.22-12.22a148.14,148.14,0,0,0,7.56-52.26c-.29-8-1.25-16.14-4.14-23.64-2.79-7.25-7.28-13.71-11.72-20.09-3.14-4.5-6.33-9.06-10.59-12.51"/><path class="cls-1" d="M185.09,56.14a139.1,139.1,0,0,0-12.45,105.31c2.4,8.39,6.35,17,15,20.43a15.09,15.09,0,0,0,12.16-.25c3.71-1.82,6.22-5.42,7.85-9.09a91.71,91.71,0,0,0,4.44-13.42,146.45,146.45,0,0,0,3.17-14.83,150.84,150.84,0,0,0,1.86-30.17c-.41-10-2-19.87-6.54-28.9a101.66,101.66,0,0,0-7.34-12.07,138.77,138.77,0,0,0-8.39-11.48,39.38,39.38,0,0,0-4.89-4.86,2.58,2.58,0,0,0-3.54,0,2.53,2.53,0,0,0,0,3.54A48.31,48.31,0,0,1,195,70c2.58,3.64,5.15,7.29,7.51,11.07a60.92,60.92,0,0,1,6.06,12,60.36,60.36,0,0,1,3,13.33c2.13,18.79-.2,38.3-5.72,56.32-1.92,6.28-4.52,15.59-12.71,15.24-8-.34-12.48-8.2-14.72-14.95-5.32-16-6.83-33.48-5.46-50.26a132.43,132.43,0,0,1,13.51-48.57c1-1.89,2-3.75,3-5.6,1.58-2.8-2.74-5.33-4.32-2.52Z"/><path class="cls-1" d="M125,67.61c-7.37,19.7-10.33,40.85-10.83,61.88a57,57,0,0,0,.44,10.12,74.13,74.13,0,0,0,3.24,11.54c3.88,11.79,6.94,24.36,15.06,33.74,1.65,1.91,3.61,3.73,6.06,4.33,3.67.92,7.57-1.19,9.83-4.23s3.2-6.82,4-10.52A171.83,171.83,0,0,0,144,76.08c-1.66-4.11-3.68-8.4-7.45-10.72-4-2.47-10-1.75-12.67,2.16"/><path class="cls-1" d="M122.57,67c-7.16,19.22-10.19,39.76-10.85,60.2-.17,5.31-.24,10.63,1,15.84,1.1,4.67,2.84,9.2,4.29,13.77,2.72,8.64,5.45,17.53,10.5,25.14,2.5,3.77,5.61,7.93,10,9.5s9.15-.41,12.16-3.62c3.24-3.45,4.54-8.14,5.47-12.65,1-4.93,1.82-9.91,2.41-14.91a174.32,174.32,0,0,0-3.14-59,160.66,160.66,0,0,0-8.88-27.83c-1.69-4-4-7.9-7.76-10.21a12.8,12.8,0,0,0-11.73-.64,10.78,10.78,0,0,0-4.36,3.7,2.51,2.51,0,0,0,.89,3.42,2.55,2.55,0,0,0,3.42-.89c1.66-2.34,5-2.79,7.59-2,3.4,1,5.41,4.4,6.85,7.4a106.65,106.65,0,0,1,4.62,12.11q2.18,6.52,3.82,13.22a170.42,170.42,0,0,1,4.31,54.43c-.36,4.5-.91,9-1.65,13.44-.72,4.3-1.35,8.87-3,12.93-1.26,3.12-3.89,6.51-7.57,6.63s-6.53-3.81-8.46-6.54c-4.82-6.85-7.49-14.86-10-22.77-1.34-4.21-2.78-8.4-4.07-12.62a44.89,44.89,0,0,1-1.82-14.06c.28-18.93,2.67-38,8.46-56,.72-2.22,1.48-4.43,2.3-6.62a2.52,2.52,0,0,0-1.75-3.07A2.55,2.55,0,0,0,122.57,67Z"/><path class="cls-1" d="M164.25,190a46.4,46.4,0,0,1-1.5,17.31,61.77,61.77,0,0,0-2,8.28c-.35,2.6-.63,6.34,2.6,7.2a2.56,2.56,0,0,0,2.82-1.14,54.6,54.6,0,0,0,6.69-17.6H168a26.77,26.77,0,0,0,8.49,14.88c1.29,1.14,3.82.87,4.18-1.1,1.05-5.71-2.25-10.36-4.73-15.19a73.18,73.18,0,0,1-3.22-7.18c-.49-1.29-.95-2.6-1.37-3.91-.21-.66-.42-1.32-.61-2-.09-.3-.17-.59-.25-.89s-.13-.44-.19-.66-.08-.3,0-.09l-.74,1.76.15-.18-1.76.73h.15L166,189l.11.13-.34-1.26V188l1.84-2.41-.12.05a2.56,2.56,0,0,0-1.74,3.07,2.51,2.51,0,0,0,3.07,1.75l.12-.05a2.57,2.57,0,0,0,1.83-2.41c-.18-1.95-2.09-3.59-4-2.45-1.77,1-1.43,3-1,4.65a79.32,79.32,0,0,0,3.36,9.5,95.23,95.23,0,0,0,4.24,8.6c1.33,2.41,3,5.29,2.52,8.17L180,215.4a22.31,22.31,0,0,1-7.21-12.67c-.46-2.38-4.37-2.39-4.82,0a50.56,50.56,0,0,1-6.19,16.4l2.83-1.15.88.85-.07-.28c-.07.19,0-.28,0-.37,0-.6,0-1.2.12-1.8a28.94,28.94,0,0,1,.77-3.56c.65-2.44,1.45-4.84,2-7.31a49.81,49.81,0,0,0,.89-15.5,2.57,2.57,0,0,0-2.5-2.5,2.51,2.51,0,0,0-2.5,2.5Z"/><path class="cls-1" d="M167.69,237.44a330.52,330.52,0,0,1-3.95,82.33q-2.06,11.61-4.92,23.07c-.78,3.12,4,4.45,4.82,1.33a335.38,335.38,0,0,0,10-83.16q-.06-11.79-1-23.57a2.57,2.57,0,0,0-2.5-2.5,2.51,2.51,0,0,0-2.5,2.5Z"/><path class="cls-1" d="M150.11,303.39c2.25,13.93-6.83,26.48-14.49,37.13a2.51,2.51,0,0,0,.9,3.42,2.55,2.55,0,0,0,3.42-.89c8.64-12,17.5-25.44,15-41a2.5,2.5,0,1,0-4.82,1.33Z"/><path class="cls-1" d="M185.15,301.12a82.57,82.57,0,0,1-1.34,21.05,85.34,85.34,0,0,1-2.64,10.08c-.53,1.65-1.11,3.29-1.71,4.91a37.32,37.32,0,0,1-1.9,5l.9-.89-.24.12,3,.4-.12-.11.73,1.77v-.18L180,345.66l.12,0c3.13-.73,1.8-5.55-1.33-4.82l-.12,0a2.57,2.57,0,0,0-1.84,2.41,2.53,2.53,0,0,0,.84,2.05,2.59,2.59,0,0,0,3,.39c1.66-.87,2.1-3.35,2.72-5s1.32-3.55,1.94-5.34a91.9,91.9,0,0,0,3.09-11.17,88.06,88.06,0,0,0,1.66-23.08c-.19-3.2-5.2-3.22-5,0Z"/></svg>