<svg id="Layer_1" data-name="Layer 1" xmlns="http://www.w3.org/2000/svg" viewBox="0 0 360 360"><defs><style>.cls-1{fill:#231f20;}</style></defs><path class="cls-1" d="M142.23,161.18c-10.58-24.85-17.72-52-14.26-79.16a96.88,96.88,0,0,1,4.48-19.24c2-5.85,4.52-12.06,8.62-16.79,3.87-4.44,9.14-7.25,14.62-9.23a113,113,0,0,1,19.76-5.07c24.9-4.2,52.3.35,71.61,17.56a98.93,98.93,0,0,1,13.06,14.67,86,86,0,0,1,10.45,17.16c4.73,11,5.78,23.36,4.2,35.15a90.24,90.24,0,0,1-8,26.38,47.47,47.47,0,0,1-4.69,8.27,22.8,22.8,0,0,1-7.2,5.73c-2.94,1.66-5.94,3.23-9,4.73a200.49,200.49,0,0,1-18.62,8.08q-4.8,1.8-9.68,3.35a2.52,2.52,0,0,0,0,4.82l22.81,6.09.66-4.91a154.09,154.09,0,0,0-21.6,4.33q-5.26,1.47-10.41,3.33a16.41,16.41,0,0,1-3.39,1,4.6,4.6,0,0,1-1.47-.05c-.2,0-.34-.17-.11,0-.27-.21-.11-.08-.28-.41-1.48-2.86-5.79-.33-4.32,2.53,1.57,3,5.17,3.28,8.14,2.61a43.72,43.72,0,0,0,4.77-1.59c1.88-.65,3.76-1.26,5.66-1.82a144.63,144.63,0,0,1,23-4.95,2.5,2.5,0,0,0,.67-4.91L219,172.77v4.82a191.63,191.63,0,0,0,39.57-17.31,26.18,26.18,0,0,0,7.75-6.72A49.84,49.84,0,0,0,271.2,145a96.66,96.66,0,0,0,6.65-18.34c3.1-12.49,3.62-25.77.42-38.29-3.45-13.47-11.71-25.24-20.77-35.57a78.83,78.83,0,0,0-32-22,95.07,95.07,0,0,0-40.38-5.28,123.06,123.06,0,0,0-21.57,3.64c-6.34,1.65-12.79,3.66-18.43,7.08A35,35,0,0,0,132,51a91,91,0,0,0-7,19.54c-6.59,27.83-1.22,56.78,8.81,83.09,1.29,3.4,2.67,6.76,4.09,10.1a2.53,2.53,0,0,0,3.43.9,2.57,2.57,0,0,0,.89-3.42Z"/><path class="cls-1" d="M143.24,164.62a1.25,1.25,0,0,1,.9-.77L142,162.62c7.15,9.61,15.75,21.2,12.81,33.95l2.41-1.84a10.92,10.92,0,0,1-8.57-5.21,2.52,2.52,0,0,0-4.66,1.26l-.61,97.87-.17,27.47a2.51,2.51,0,0,0,2.5,2.5,199.52,199.52,0,0,1,45.63-.15,2.51,2.51,0,0,0,2.5-2.5c0-18.16-2.87-36.13-4.17-54.21-1.22-16.95-1.05-34.37,4.28-50.68,2.5-7.63,6.24-15.57,13-20.27a2.56,2.56,0,0,0,.9-3.42,2.52,2.52,0,0,0-3.42-.9c-6.57,4.54-10.74,11.33-13.66,18.62a96.26,96.26,0,0,0-6,25.5c-1.93,17.95.16,36,2,53.85,1.07,10.47,2,21,2,31.51l2.5-2.5a199.52,199.52,0,0,0-45.63.15l2.5,2.5.61-97.87.17-27.47-4.65,1.27a16.16,16.16,0,0,0,12.88,7.68,2.51,2.51,0,0,0,2.41-1.83c2-8.55-.41-17.24-4.53-24.78a96,96,0,0,0-6.91-10.5c-.62-.84-1.24-1.69-1.87-2.53a3,3,0,0,0-3.5-1,6.54,6.54,0,0,0-4.39,4.24,2.53,2.53,0,0,0,1.75,3.08,2.56,2.56,0,0,0,3.08-1.75Z"/><path class="cls-1" d="M152.25,238.71l2.67,57.36.76,16.47a2.5,2.5,0,0,0,5,0l.14-2.88c.17-3.22-4.83-3.21-5,0l-.14,2.88h5L158,255.17l-.77-16.46c-.15-3.21-5.15-3.23-5,0Z"/><path class="cls-1" d="M167.91,279.27c1.41,11.28,3.58,22.81,2.71,34.22a2.5,2.5,0,0,0,5,0c.87-11.41-1.3-22.94-2.71-34.22a2.58,2.58,0,0,0-2.5-2.5,2.51,2.51,0,0,0-2.5,2.5Z"/><path class="cls-1" d="M149.1,74.11c-1.16-.86-2.71.36-3.58,1.52-11.45,15.27-13,36.45-7.25,54.66,1.81,5.76,4.32,11.39,8.23,16a29,29,0,0,0,21,10.28,24.94,24.94,0,0,0,20.76-10.25c5.76-8.26,5.45-19.25,3.79-29.18-1.54-9.23-4.14-18.46-9.28-26.27A46,46,0,0,0,145.1,70.5"/><path class="cls-1" d="M150.36,72c-4.36-2.53-7.65,3.08-9.53,6.16a54.18,54.18,0,0,0-5,10.66A63.76,63.76,0,0,0,132.59,112a71.93,71.93,0,0,0,4.85,23.49c3.11,7.87,7.94,14.94,15.35,19.31a29.4,29.4,0,0,0,23,3.2A26.56,26.56,0,0,0,192.92,143c3.27-7.63,3.08-16.11,1.94-24.19-1.2-8.51-3.34-17-7.27-24.73a48.62,48.62,0,0,0-37-25.74A44.21,44.21,0,0,0,145.1,68c-3.22,0-3.22,5,0,5a43.54,43.54,0,0,1,34.46,17.53c4.56,6.3,7.22,13.67,8.93,21.2,1.61,7.12,2.8,14.7,1.83,22-.89,6.72-4,13-9.88,16.67A23.35,23.35,0,0,1,161.21,153a28,28,0,0,1-15.91-12.74c-3.77-6.3-5.87-13.66-7-20.88-2.15-13.68,0-28.4,7.68-40.09.47-.71.94-1.44,1.46-2.1a7.69,7.69,0,0,1,.61-.66c.55-.55.29,0-.22-.28,2.79,1.62,5.31-2.7,2.53-4.32Z"/><path class="cls-1" d="M139.4,167c6.77,6.82,12.31,16.2,10.26,26.16h4.82l-.15-.45c-1-3-5.85-1.74-4.83,1.33l.16.45c.72,2.18,4.29,2.57,4.82,0,2.43-11.8-3.42-22.85-11.54-31-2.27-2.29-5.81,1.25-3.54,3.54Z"/><path class="cls-1" d="M157.8,195.39a17.92,17.92,0,0,0-1.55-14.8,2.5,2.5,0,0,0-4.32,2.53c.29.49.55,1,.79,1.5.12.26.12.26,0,0l.12.3c.08.23.17.46.24.7a13.18,13.18,0,0,1,.43,1.64c.05.21.08.42.12.62s0,.28,0,0c0,.14,0,.28.05.42a16.78,16.78,0,0,1,0,3.17c-.06.6.08-.36,0,.18-.06.28-.1.55-.16.83a16,16,0,0,1-.48,1.63,2.51,2.51,0,0,0,1.75,3.07,2.56,2.56,0,0,0,3.07-1.74Z"/></svg>