<svg id="Layer_1" data-name="Layer 1" xmlns="http://www.w3.org/2000/svg" viewBox="0 0 360 360"><defs><style>.cls-1{fill:#231f20;}</style></defs><path class="cls-1" d="M245.37,173.57c10.25-8.14,15.1-21.09,18-33.45a129.34,129.34,0,0,0,3.2-40.37,97.79,97.79,0,0,0-11.18-38.57,102.85,102.85,0,0,0-26.1-30.63,91,91,0,0,0-33.82-17.33,72.75,72.75,0,0,0-19.21-2.31,117.84,117.84,0,0,0-22.5,3,30.25,30.25,0,0,0-9.91,3.72,45.89,45.89,0,0,0-8,6.91,140.43,140.43,0,0,0-13.22,15.39c-8.26,11.23-13.93,23.87-15.86,37.73a193.54,193.54,0,0,0-1.43,22.83c-.15,7.62-.26,15.28.71,22.86a90.71,90.71,0,0,0,6.1,21.9q4.39,11.06,9,22,2.31,5.46,4.68,10.92a2.51,2.51,0,0,0,3.42.89,2.56,2.56,0,0,0,.9-3.42q-4.6-10.59-9-21.29c-2.78-6.78-5.74-13.56-7.87-20.58A80.46,80.46,0,0,1,110.26,112c-.14-7.28,0-14.6.38-21.87a97.52,97.52,0,0,1,3.1-21.7,73.85,73.85,0,0,1,7.46-17.24,105.77,105.77,0,0,1,11.22-15.54c2.14-2.48,4.37-4.89,6.66-7.23A42.85,42.85,0,0,1,146.37,22a27.3,27.3,0,0,1,9.15-3.3c3.52-.73,7.08-1.36,10.64-1.88A72.53,72.53,0,0,1,186,16.45c11.9,1.55,23.22,6.33,33.18,12.9a100.44,100.44,0,0,1,26.65,26,88.36,88.36,0,0,1,14.57,35.55,115.76,115.76,0,0,1,0,38.42c-1.92,11.91-5,24.83-12.47,34.56a36.46,36.46,0,0,1-6.12,6.17,2.5,2.5,0,0,0,0,3.53,2.55,2.55,0,0,0,3.54,0Z"/><path class="cls-1" d="M128.44,173.81a84.77,84.77,0,0,0-27.57,5.1c-1.88.69-2.64,3.49-.59,4.57,4.36,2.3,9.14,3.45,13.89,4.65l15,3.79c3.12.78,4.45-4,1.33-4.83L116,183.43c-4.47-1.13-9.07-2.11-13.18-4.27l-.6,4.57a80.51,80.51,0,0,1,26.24-4.92c3.21-.05,3.22-5.05,0-5Z"/><path class="cls-1" d="M241.46,174.76a60.49,60.49,0,0,1,21,10.34l1.26-4.66a153.17,153.17,0,0,0-26.49.4,2.57,2.57,0,0,0-2.5,2.5,2.51,2.51,0,0,0,2.5,2.5,153.17,153.17,0,0,1,26.49-.4,2.53,2.53,0,0,0,2.42-1.83,2.63,2.63,0,0,0-1.15-2.82,64,64,0,0,0-22.19-10.85c-3.11-.84-4.44,4-1.33,4.82Z"/><path class="cls-1" d="M127,189.33c9.84,16.75,16.8,34.94,22.35,53.52,5.61,18.83,9.86,38,14.46,57.13,2.6,10.75,5.31,21.47,8.44,32.08a2.53,2.53,0,0,0,4.57.6,203.69,203.69,0,0,0,24.24-55.13c2.79-10.14,5.39-20.23,9.6-29.9,4.33-9.91,9-19.7,13.46-29.53l15.34-33.54-4.66-1.26,0,2.43c.06,3.21,5.06,3.22,5,0l0-2.43c0-2.31-3.57-3.63-4.65-1.26-9.09,19.87-18.28,39.7-27.27,59.61-2.16,4.81-4.25,9.65-5.95,14.65s-3.07,10.13-4.44,15.25a230.39,230.39,0,0,1-9.53,29,194.65,194.65,0,0,1-15.46,29.61l4.57.6c-5.61-19-9.87-38.37-14.53-57.62-4.62-19.05-9.64-38.07-16.82-56.35a213,213,0,0,0-14.4-29.95c-1.63-2.78-6-.26-4.32,2.52Z"/><path class="cls-1" d="M176.27,325.54a3.67,3.67,0,0,1,.53.34l-.5-.39a3.72,3.72,0,0,1,.71.72l-.39-.5a3.8,3.8,0,0,1,.5.85l-.25-.6.06.15a1.94,1.94,0,0,0,.45.85,2.26,2.26,0,0,0,1.63.94,1.86,1.86,0,0,0,1,0l.6-.25a2.43,2.43,0,0,0,.9-.9l.25-.59a2.5,2.5,0,0,0,0-1.33,7.6,7.6,0,0,0-.56-1.23,2.9,2.9,0,0,0-.19-.29c-.19-.26-.39-.52-.6-.77a4,4,0,0,0-.52-.49,6.54,6.54,0,0,0-1.09-.78,1.9,1.9,0,0,0-.93-.3,1.86,1.86,0,0,0-1,.05,1.78,1.78,0,0,0-.85.44,1.85,1.85,0,0,0-.65.71l-.25.59a2.5,2.5,0,0,0,0,1.33l.25.6a2.59,2.59,0,0,0,.9.9Z"/><path class="cls-1" d="M179.38,326q1-24.76,2-49.51c.68-16.55,1.46-33.09,2.68-49.61q1-13.92,2.53-27.8a2.51,2.51,0,0,0-2.5-2.5,2.56,2.56,0,0,0-2.5,2.5c-1.81,16.38-3,32.81-3.9,49.26s-1.51,33.1-2.17,49.66l-1.12,28c-.13,3.21,4.87,3.21,5,0Z"/><path class="cls-1" d="M207.3,222.92a150,150,0,0,1-4.09,26.64c-.77,3.12,4,4.45,4.82,1.33a157.29,157.29,0,0,0,4.27-28c.2-3.22-4.8-3.2-5,0Z"/><path class="cls-1" d="M155.88,222.06l-.66,15.43L154.9,245l-.18,4-.08,2,0,1c-.08.8,0,.68.33-.39l1.77-.73h-.18l1.26.34-.16-.11.9.9-.1-.16.34,1.26v-.16l-.74,1.77.13-.1a2.51,2.51,0,0,0,0-3.53,2.56,2.56,0,0,0-3.54,0c-1.53,1.2-.84,3.58.64,4.45a2.94,2.94,0,0,0,4.16-1.87,22.79,22.79,0,0,0,.34-5.16l.23-5.23.91-21.15c.14-3.22-4.86-3.21-5,0Z"/><path class="cls-1" d="M181.81,160.49a93.93,93.93,0,0,0-15.05,21.6,2.51,2.51,0,0,0,3.93,3,116.32,116.32,0,0,0,15.76-17.28l-4.65-1.26c-.16,3.47,1.76,6.31,3.67,9a20.76,20.76,0,0,1,2.43,4.21,42,42,0,0,1,1.63,5.62,2.49,2.49,0,0,0,2.75,1.79,2.53,2.53,0,0,0,2.16-2.45c.47-4.41-1.33-9-2.63-13.14S189,163.14,187.29,159a2.57,2.57,0,0,0-3.07-1.75,2.52,2.52,0,0,0-1.75,3.08c1.6,4,3.07,8.07,4.37,12.19q.94,3,1.78,6a16.59,16.59,0,0,1,.82,6.29l4.91-.67A30.33,30.33,0,0,0,190.43,174c-1.5-2.24-3.76-4.58-3.63-7.44a2.55,2.55,0,0,0-1.84-2.41,2.6,2.6,0,0,0-2.82,1.15,111.07,111.07,0,0,1-15,16.27l3.93,3A89.28,89.28,0,0,1,185.34,164c2.19-2.35-1.34-5.9-3.53-3.53Z"/><path class="cls-1" d="M188.25,138.29l-1.7,9c4.85-2.63,8.31-7.17,11.66-11.54q25.14-32.84,53.11-63.37a155.8,155.8,0,0,1-25.59,70.78c-2.6,3.86-5.6,7.79-9.92,9.51-3.53,1.4-7.47,1.13-11.25.77-5.35-.51-11.33-1.54-14.45-5.92"/><path class="cls-1" d="M185.84,137.63l-1.7,9a2.54,2.54,0,0,0,3.67,2.83c5.28-2.94,8.95-7.74,12.56-12.44q6.06-7.9,12.28-15.68,12.4-15.48,25.46-30.44,7.39-8.46,15-16.75l-4.27-1.76a152.64,152.64,0,0,1-11.4,44,154.71,154.71,0,0,1-10.65,20.53c-3.42,5.53-7.32,12.86-14.34,14.08-3.7.64-7.88.11-11.55-.56-3.09-.57-6.64-1.54-8.61-4.2a2.58,2.58,0,0,0-3.42-.9,2.53,2.53,0,0,0-.9,3.42c4.59,6.21,13,7.14,20.13,7.42,4.09.16,8.25-.47,11.69-2.82a30.86,30.86,0,0,0,7.79-8.47A156.94,156.94,0,0,0,248.51,100a158.63,158.63,0,0,0,5.31-27.65c.23-2.17-2.88-3.29-4.26-1.77q-26.7,29.15-50.89,60.47c-3.91,5.06-7.65,10.87-13.38,14L189,148l1.7-9a2.57,2.57,0,0,0-1.74-3.08,2.54,2.54,0,0,0-3.08,1.75Z"/><path class="cls-1" d="M175.81,129.73l-2.23,12c-21.36-18.27-37-42.12-51.92-65.89-2.35,2.56-2.38,6.41-2.27,9.87.36,11.39.73,22.87,3.19,34s7.19,22,15.2,30.16c3.26,3.31,7.15,6.19,11.67,7.35a18.33,18.33,0,0,0,15.86-3.48A18.1,18.1,0,0,0,171.83,139"/><path class="cls-1" d="M173.39,129.07l-2.22,12,4.17-1.11c-16.56-14.21-29.7-31.76-41.63-49.91-3.36-5.12-6.64-10.29-9.89-15.47a2.53,2.53,0,0,0-3.93-.51c-2.85,3.28-3.12,7.48-3,11.64.14,5,.31,10,.65,14.94.64,9.48,1.89,19,5,28.08a60.17,60.17,0,0,0,12.8,22.16,31.58,31.58,0,0,0,10.47,7.69,20.89,20.89,0,0,0,12.49,1.21A20.54,20.54,0,0,0,174.33,139c-.14-3.21-5.14-3.22-5,0a15.51,15.51,0,0,1-10.88,15.63,15.85,15.85,0,0,1-10.29-.39,25.39,25.39,0,0,1-8.9-6.39C128,136.18,124.12,119.63,122.79,104c-.42-5-.63-10-.79-14.93-.08-2.25-.23-4.52-.1-6.77a7.69,7.69,0,0,1,1.53-4.7l-3.93-.51c11.7,18.64,23.78,37.26,38.83,53.42a166.88,166.88,0,0,0,13.48,13c1.3,1.11,3.81.89,4.18-1.1l2.23-12a2.58,2.58,0,0,0-1.75-3.08,2.53,2.53,0,0,0-3.08,1.75Z"/></svg>