<svg id="Layer_1" data-name="Layer 1" xmlns="http://www.w3.org/2000/svg" viewBox="0 0 360 360"><defs><style>.cls-1{fill:#231f20;}</style></defs><path class="cls-1" d="M290.19,188.61a85.65,85.65,0,0,0,20.3-42,101,101,0,0,0-2.63-47.14,106.15,106.15,0,0,0-23.91-41,130.44,130.44,0,0,0-38.44-28.34A144.15,144.15,0,0,0,199.1,16.45a147.08,147.08,0,0,0-48.48,2.33,135,135,0,0,0-44.37,18.15A118.76,118.76,0,0,0,70.48,72.44c-10,15.51-15.8,33.66-15.65,52.15A81.24,81.24,0,0,0,60,152.75a116.21,116.21,0,0,0,13.7,24.79c2.66,3.81,5.43,7.54,8.2,11.27a2.57,2.57,0,0,0,3.42.89,2.51,2.51,0,0,0,.9-3.42c-5.54-7.43-11.08-14.9-15.68-23A80.47,80.47,0,0,1,61,137.8c-3.18-17.6,0-36.06,7.74-52.08A109.89,109.89,0,0,1,100.19,47.3a125.39,125.39,0,0,1,40.72-20.83,141.65,141.65,0,0,1,46.2-5.95,139.51,139.51,0,0,1,45.52,9.38,130.44,130.44,0,0,1,39.19,23.7,107.85,107.85,0,0,1,27.33,36.65A95.28,95.28,0,0,1,307,134.36a85.43,85.43,0,0,1-13.69,42.2,71.9,71.9,0,0,1-6.63,8.51c-2.15,2.39,1.38,5.93,3.54,3.54Z"/><path class="cls-1" d="M287,190.68c7.84,2.6,15.83,5,23.44,8.18l.6-4.57L279,203.61c-3.08.9-1.77,5.73,1.33,4.82l32.08-9.32c1.86-.54,2.68-3.68.6-4.57-8-3.39-16.38-5.95-24.64-8.68-3.07-1-4.38,3.82-1.33,4.82Z"/><path class="cls-1" d="M82.78,187.18c-5.77,1.31-11.57,2.52-17.31,3.94-4.8,1.19-9.66,2.93-13.13,6.61a2.52,2.52,0,0,0,1.1,4.18q8.58,2,17.25,3.58,4.22.76,8.45,1.43c1.45.23,2.9.45,4.35.65l2.18.31c.3,0,.86.27.75,0l-.34-1.26v-.16a2.52,2.52,0,0,0,1.74,3.08,2.57,2.57,0,0,0,3.08-1.75,3.42,3.42,0,0,0-1.72-4.06,12.65,12.65,0,0,0-4.6-1q-5-.72-9.91-1.58-10-1.74-19.9-4l1.1,4.18c3.08-3.26,7.46-4.5,11.69-5.51,5.5-1.31,11-2.51,16.55-3.76,3.13-.71,1.81-5.53-1.33-4.82Z"/><path class="cls-1" d="M85.43,205.88Q60.22,248.6,38.59,293.33q-6,12.51-11.8,25.17A2.54,2.54,0,0,0,29,322.26c18.51,2.15,37-2.38,55.54-2.16s37.07,3.27,55.69,3.26,37-3.15,55.54-3.42c18.8-.29,37.58,1.22,56.38.25,20.89-1.08,41.6-4.26,62.25-7.42,2-.32,2.15-2.91,1.11-4.18-3.95-4.81-5.66-11-7-16.93-1.65-7-3.21-14.08-5-21.08-3.69-14.34-7.91-28.55-12.32-42.69-2.54-8.13-5.14-16.24-7.74-24.35-1-3-5.81-1.75-4.82,1.33,4.66,14.55,9.33,29.1,13.62,43.76,4.22,14.37,7.89,28.85,11.24,43.44,1.64,7.18,3.8,14.27,8.54,20.05L313,308c-18.38,2.81-36.78,5.62-55.35,6.9s-37.13.15-55.73.06c-9.41-.05-18.76.46-28.13,1.27-9.14.8-18.28,1.75-27.46,2.07-18.47.64-36.76-2.15-55.17-3A219.24,219.24,0,0,0,60,316.48c-10.32,1-20.71,2-31.06.78L31.11,321q20.53-45.16,44.78-88.52,6.78-12.13,13.86-24.11c1.64-2.78-2.69-5.3-4.32-2.52Z"/><path class="cls-1" d="M171.19,188.82a253.52,253.52,0,0,0-31.51,35.25c6.24,0,12.09-3,17.24-6.52s9.91-7.67,15.44-10.54a46.31,46.31,0,0,0,23.43,17.81,54.51,54.51,0,0,0-10.88-17.33c-2.43-2.6-5.11-5-7.47-7.63A43.7,43.7,0,0,1,169.52,187"/><path class="cls-1" d="M169.43,187.05a259.11,259.11,0,0,0-31.9,35.76c-1.16,1.56.4,3.79,2.15,3.76,13.69-.21,22.66-11.46,33.94-17.4l-3.42-.9a49.43,49.43,0,0,0,24.92,19c1.7.58,3.77-1.32,3.08-3.07a58.46,58.46,0,0,0-12.48-19.44,107.4,107.4,0,0,1-8.18-8.62,41.37,41.37,0,0,1-5.61-9.76,2.58,2.58,0,0,0-3.08-1.74,2.51,2.51,0,0,0-1.74,3.07,46.55,46.55,0,0,0,5.72,10.42,77.44,77.44,0,0,0,8,8.84,54.1,54.1,0,0,1,12.51,18.56l3.07-3.08a43.81,43.81,0,0,1-21.93-16.67,2.56,2.56,0,0,0-3.42-.89c-5.47,2.88-10.18,6.92-15.26,10.41-4.8,3.3-10.19,6.22-16.16,6.31l2.16,3.76A252.74,252.74,0,0,1,173,190.59c2.36-2.2-1.18-5.73-3.53-3.54Z"/><path class="cls-1" d="M70.16,280q-6.33,10.45-11.92,21.32-2.77,5.38-5.35,10.85c-.88,1.86-1.75,3.72-2.58,5.6a4.09,4.09,0,0,0-.46,2.9A3.07,3.07,0,0,0,52,322.82a2.49,2.49,0,0,0,2.44-.64l.11-.14a2.58,2.58,0,0,0,0-3.54,2.53,2.53,0,0,0-3.54,0l-.11.14L53.3,318l-.14,0,1.11.65.36.42v1.33a10.89,10.89,0,0,1,1-2.25c.36-.8.72-1.58,1.09-2.37.77-1.65,1.56-3.29,2.35-4.93q2.34-4.8,4.82-9.52,5-9.56,10.6-18.8c1.67-2.76-2.65-5.28-4.31-2.52Z"/><path class="cls-1" d="M114.08,257.72a362.16,362.16,0,0,1-22.32,52c-1,2-3.77,5.3-1.3,7.18a2.93,2.93,0,0,0,3.71-.24,2.68,2.68,0,0,0,0-3.83,2.5,2.5,0,0,0-3.53,0,2.55,2.55,0,0,0,0,3.53l.09.12L90.13,314l0,.11.64-1.11-.1.08,1.1-.64.9,0,1.1.65-.07-.08.65,2.43a13.28,13.28,0,0,1,1.1-2Q96.2,312,97,310.58q1.35-2.61,2.66-5.23,2.73-5.48,5.26-11,5-11,9.33-22.25,2.47-6.46,4.7-13c1-3.05-3.79-4.36-4.82-1.33Z"/><path class="cls-1" d="M164.83,238.19c-.07,10.11-1.05,20.18-1.92,30.24l-2.63,30.21L158.78,316a2.51,2.51,0,0,0,2.5,2.5,2.55,2.55,0,0,0,2.5-2.5c1.75-20.13,3.65-40.26,5.22-60.41.45-5.78.79-11.57.83-17.37,0-3.22-5-3.22-5,0Z"/><path class="cls-1" d="M201.71,254.07c-.06,0-1.48-.09-1.48,0a2.61,2.61,0,0,1,.19.3,5.15,5.15,0,0,0,.36,1l.9,3q.88,3,1.73,6.06c1.13,4.05,2.19,8.11,3.21,12.18q3.06,12.36,5.43,24.86,1.32,7,2.43,14.09a2.51,2.51,0,0,0,3.07,1.74,2.55,2.55,0,0,0,1.75-3.07,451,451,0,0,0-12-54.39,53.11,53.11,0,0,0-2.35-7.57c-1.08-2.36-3.32-3.6-5.78-2.51a2.52,2.52,0,0,0-.89,3.42,2.56,2.56,0,0,0,3.42.9Z"/><path class="cls-1" d="M248.12,261.73a59.41,59.41,0,0,1,5.26,12.07l4.68,13.59L262.77,301a73.44,73.44,0,0,1,3.63,13.33,2.52,2.52,0,0,0,3.07,1.75,2.58,2.58,0,0,0,1.75-3.08,73.44,73.44,0,0,0-3.63-13.33l-4.87-14.12q-2.4-7-4.81-14a62.76,62.76,0,0,0-5.47-12.41c-1.69-2.73-6-.23-4.32,2.52Z"/><path class="cls-1" d="M234.94,91.26a74.9,74.9,0,0,0-44,75.81,26.42,26.42,0,0,0,2.82,10.5c2.16,3.84,5.78,6.61,9.49,9,6.91,4.44,14.8,8,23,7.67,12.33-.47,22.52-9.3,31.55-17.7a67,67,0,0,0,8.63-9.12,48.24,48.24,0,0,0,7.38-17c3.86-15.41,3.22-32-2.59-46.83a28.6,28.6,0,0,0-4.94-8.7c-3.85-4.31-9.53-6.48-15.1-8-4.75-1.29-9.71-2.22-14.57-1.46s-9.63,3.47-11.8,7.89"/><path class="cls-1" d="M233.68,89.1a77.43,77.43,0,0,0-45.33,76.44c.44,5.67,1.44,11.28,5,15.85,3.32,4.22,8.16,7.27,12.82,9.81a43.43,43.43,0,0,0,15.73,5.34,31.15,31.15,0,0,0,15.46-2.31c9.71-4,17.72-11.49,25.16-18.72a45,45,0,0,0,9.88-13.36,66.76,66.76,0,0,0,4.89-15.87,81.6,81.6,0,0,0-.69-33.91c-1.29-5.35-3.05-11-5.93-15.68A24.67,24.67,0,0,0,259,87a52.52,52.52,0,0,0-16.7-4.19c-5.2-.37-10.66.67-14.89,3.85a15.86,15.86,0,0,0-4.73,5.47c-1.46,2.87,2.85,5.4,4.31,2.53,4.71-9.24,17-7.24,25.1-4.84,4.32,1.28,8.69,3,11.89,6.32,3.36,3.44,5.08,8.34,6.49,12.84a74.89,74.89,0,0,1,2.78,30.89c-1.1,9.8-3.83,20.44-10.38,28.08A113.55,113.55,0,0,1,252,178.49,74.07,74.07,0,0,1,240.66,187a31.62,31.62,0,0,1-12.55,4.56,30.06,30.06,0,0,1-14.58-2.38,51.39,51.39,0,0,1-12.7-7.43,17.24,17.24,0,0,1-7-12.11c-1.67-9.82-.61-20.34,2.09-29.87a72.82,72.82,0,0,1,34.28-43.35c2-1.11,4-2.11,6-3A2.53,2.53,0,0,0,237.1,90a2.56,2.56,0,0,0-3.42-.89Z"/><path class="cls-1" d="M89.49,101.55c-1.81-1.39-4.29.58-5.53,2.5-4.7,7.25-6.46,16.14-6.1,24.77s2.75,17.07,5.8,25.16c3.89,10.28,9.24,20.54,18.17,27a48.78,48.78,0,0,0,10.48,5.52c9.54,3.79,20.51,5.7,29.95,1.67,11.24-4.81,17.78-17.29,18.52-29.5s-3.39-24.17-8.44-35.31S140.72,101,130,95.16a48.37,48.37,0,0,0-13.1-4.49c-6.65-1.42-13.71-2.08-20.15.09S84.66,98.52,84.14,105.3L84,102.39"/><path class="cls-1" d="M90.76,99.39c-2.49-1.64-5.41-.47-7.36,1.43a20.94,20.94,0,0,0-4,6.42,45.85,45.85,0,0,0-3.9,15.62c-.86,11.33,2.21,22.64,6.3,33.1,3.61,9.24,8.39,18.51,16.09,25a49.42,49.42,0,0,0,14.2,8.05A54.61,54.61,0,0,0,128,192.78c10.06.72,19.86-2.88,26.35-10.73a41.2,41.2,0,0,0,9.05-26.16c0-11.52-3.84-22.6-8.49-33-3.93-8.78-8.68-17.59-15.81-24.21-8-7.4-18.7-10.69-29.37-11.66-9.94-.89-21.26,2.11-26.16,11.63a17.55,17.55,0,0,0-1.9,6.64h5l-.17-2.91c-.2-3.19-5.2-3.22-5,0l.17,2.91a2.5,2.5,0,0,0,5,0c.76-8.46,9.86-13,17.4-13.39a49.87,49.87,0,0,1,14.82,1.77A39.34,39.34,0,0,1,132,99.36c7.06,4.94,11.88,12.53,15.71,20.1,4.46,8.82,8.31,18.24,10,28,1.44,8.54.75,17.54-3.24,25.33-3.78,7.4-10.09,13-18.37,14.58-9.29,1.8-19.48-1.23-27.72-5.44s-14-11.21-18.23-19.41a92,92,0,0,1-9.27-28.3c-1.33-9.28-.38-19.27,4.38-27.49a9.89,9.89,0,0,1,1.84-2.54,9.15,9.15,0,0,1,.89-.59s.27-.18.16,0h.16c-.44-.14-.45-.1,0,.12,2.7,1.77,5.21-2.56,2.53-4.32Z"/></svg>