<svg id="Layer_1" data-name="Layer 1" xmlns="http://www.w3.org/2000/svg" viewBox="0 0 360 360"><defs><style>.cls-1{fill:#231f20;}</style></defs><path class="cls-1" d="M244,166.52c8.82-25.19,14.62-52,12.32-78.78a126.51,126.51,0,0,0-3.2-19.63,79,79,0,0,0-6.64-18.34A30.91,30.91,0,0,0,234,37.3,70.13,70.13,0,0,0,216.86,31c-12.53-3.09-25.89-3.37-38.3.45A64,64,0,0,0,149.38,50.3,110.36,110.36,0,0,0,138,66.39,88.38,88.38,0,0,0,129.64,84c-3.79,11.45-4.61,23.84-3.31,35.79a108.36,108.36,0,0,0,3.56,18.28,91,91,0,0,0,6.52,17.06,22.54,22.54,0,0,0,5.88,7.27,80.41,80.41,0,0,0,7.85,5.35,154.93,154.93,0,0,0,17.48,9.44q4.44,2,9,3.81v-4.82l-18.75,6.09c-2.13.69-2.61,4.41,0,4.82a104.5,104.5,0,0,1,19.7,5.11c1.5.56,3,1.14,4.46,1.77a26.45,26.45,0,0,0,4.08,1.62c2.67.65,5.8.11,7-2.67a2.57,2.57,0,0,0-.9-3.42,2.51,2.51,0,0,0-3.42.9c-.12.29-.5.66-.06.4a1.17,1.17,0,0,1-.7.08,8.75,8.75,0,0,1-2.59-.85c-2.87-1.26-5.79-2.42-8.76-3.44a103,103,0,0,0-17.47-4.32v4.82L178,181a2.52,2.52,0,0,0,0-4.82,149,149,0,0,1-16.86-7.83q-4.29-2.33-8.42-4.91a67,67,0,0,1-7.16-4.84C141,155,139,149.26,137.06,144a107.29,107.29,0,0,1-4.62-16.79,87.43,87.43,0,0,1,0-34.19c2.52-11.93,8.47-22.63,15.38-32.55a60,60,0,0,1,59.56-26.22,84.28,84.28,0,0,1,18.22,4.69c4.88,1.83,9.58,4.34,13.11,8.26,3.93,4.36,6,10.23,7.77,15.73a113.1,113.1,0,0,1,4.13,18.18c3.64,25.3-.79,51.08-8.43,75.24q-1.41,4.46-3,8.86a2.5,2.5,0,1,0,4.82,1.33Z"/><path class="cls-1" d="M243.39,166.71c-.63-2.07-2.21-4-4.48-4.35a2.62,2.62,0,0,0-2.82,1.15c-7,11.44-13.61,24-11,37.8a2.52,2.52,0,0,0,2.41,1.84,13.58,13.58,0,0,0,11-7.69l-4.66-1.26.51,97.87.14,27.46,3.16-2.41A140,140,0,0,0,198.8,317l3.17,2.41c0-18.29,2.4-36.45,3.45-54.68,1-17.33.79-35.09-3.82-51.95-2.23-8.15-5.55-16.87-12.19-22.46a2.57,2.57,0,0,0-3.54,0,2.51,2.51,0,0,0,0,3.53c5.55,4.67,8.41,11.7,10.41,18.49A115.28,115.28,0,0,1,200.49,237c1.2,17.39-.51,34.77-2,52.08-.83,10.09-1.56,20.2-1.57,30.33,0,1.79,1.59,2.62,3.16,2.41a131.26,131.26,0,0,1,36.18.14c1.57.23,3.18-.62,3.17-2.41L239,221.66l-.14-27.46c0-2.38-3.51-3.54-4.66-1.26-1.3,2.58-3.6,5-6.65,5.21l2.41,1.83c-2.35-12.36,4.3-23.82,10.48-33.95l-2.82,1.15c.61.08.79.24,1,.86.93,3.07,5.75,1.76,4.82-1.33Z"/><path class="cls-1" d="M227,242.12l-2.19,57.37L224.21,316h5l-.12-2.88c-.13-3.2-5.13-3.22-5,0l.12,2.88a2.5,2.5,0,0,0,5,0l2.19-57.37.63-16.46c.12-3.22-4.88-3.21-5,0Z"/><path class="cls-1" d="M214.16,282.68C213,294,211.21,305.5,211.93,316.9c.2,3.2,5.2,3.22,5,0-.72-11.4,1.06-22.89,2.23-34.22a2.52,2.52,0,0,0-2.5-2.5,2.55,2.55,0,0,0-2.5,2.5Z"/><path class="cls-1" d="M234.18,77.53c.95-.87,2.22.36,2.94,1.51,9.41,15.28,10.64,36.45,5.95,54.67-1.48,5.75-3.54,11.38-6.76,16C232,155.79,225.63,159.78,219,160S205.73,156.3,202,149.71c-4.73-8.27-4.48-19.26-3.12-29.19,1.27-9.23,3.4-18.45,7.63-26.27,6.73-12.42,18.76-20.32,31-20.33"/><path class="cls-1" d="M235.44,79.68c-.12.09-1.06-.17-1.08-.07l.3.28c.16.25.34.49.5.74.43.72.84,1.44,1.24,2.18.72,1.35,1.4,2.73,2,4.14a58.56,58.56,0,0,1,3,9.41,73.25,73.25,0,0,1,1.73,20.19,80,80,0,0,1-3.51,20.13c-2,6.42-5.07,12.95-10.62,17-4.71,3.47-10.63,4.84-16.18,2.57-5.82-2.38-9.49-7.82-11.08-13.71-1.81-6.68-1.45-13.81-.6-20.61a86.76,86.76,0,0,1,5.3-21.89c4.68-11.48,14.4-21.31,27-23.37a25.94,25.94,0,0,1,4-.3c3.22,0,3.23-5,0-5-14.35.1-27,9.76-33.45,22.15-3.91,7.46-6,15.74-7.25,24-1.22,7.91-1.94,16-.39,23.95,1.43,7.28,5.29,14.13,11.8,18a20.81,20.81,0,0,0,20.15.49c7-3.53,11.54-10.15,14.43-17.23a78.61,78.61,0,0,0,5.18-23A80.32,80.32,0,0,0,246.67,97a62.19,62.19,0,0,0-3.09-10.46c-1.31-3.33-2.81-7.11-5.14-9.88-1.34-1.6-3.62-2.6-5.52-1.28a2.56,2.56,0,0,0-.9,3.42,2.51,2.51,0,0,0,3.42.89Z"/><path class="cls-1" d="M238.93,166.91c-7.14,8.75-11.53,19.61-9.6,31,.42,2.53,4.2,2.24,4.82,0l.12-.45c.85-3.1-4-4.43-4.82-1.33l-.12.45h4.82c-1.6-9.46,2.42-18.93,8.31-26.16a2.57,2.57,0,0,0,0-3.53,2.5,2.5,0,0,0-3.53,0Z"/><path class="cls-1" d="M231.41,197.47c-.15-.52-.28-1-.38-1.57,0-.25-.09-.5-.12-.75.09.61,0-.31,0-.42a18.39,18.39,0,0,1,0-3.06c0-.26,0-.51.07-.76s0-.15,0,.12c0-.14.05-.28.07-.43.09-.5.2-1,.32-1.48s.27-1,.44-1.43c0-.1.37-.94.14-.39.11-.26.23-.52.35-.77a2.5,2.5,0,1,0-4.32-2.52,21,21,0,0,0-1.32,14.79,2.5,2.5,0,1,0,4.82-1.33Z"/></svg>