<svg id="Layer_1" data-name="Layer 1" xmlns="http://www.w3.org/2000/svg" viewBox="0 0 360 360"><defs><style>.cls-1{fill:#231f20;}</style></defs><path class="cls-1" d="M245.37,173.57c10.25-8.14,15.1-21.09,18-33.45a129.34,129.34,0,0,0,3.2-40.37,97.79,97.79,0,0,0-11.18-38.57,102.85,102.85,0,0,0-26.1-30.63,91,91,0,0,0-33.82-17.33,72.75,72.75,0,0,0-19.21-2.31,117.84,117.84,0,0,0-22.5,3,30.25,30.25,0,0,0-9.91,3.72,45.89,45.89,0,0,0-8,6.91,140.43,140.43,0,0,0-13.22,15.39c-8.26,11.23-13.93,23.87-15.86,37.73a193.54,193.54,0,0,0-1.43,22.83c-.15,7.62-.26,15.28.71,22.86a90.71,90.71,0,0,0,6.1,21.9q4.39,11.06,9,22,2.31,5.46,4.68,10.92a2.51,2.51,0,0,0,3.42.89,2.56,2.56,0,0,0,.9-3.42q-4.6-10.59-9-21.29c-2.78-6.78-5.74-13.56-7.87-20.58A80.46,80.46,0,0,1,110.26,112c-.14-7.28,0-14.6.38-21.87a97.52,97.52,0,0,1,3.1-21.7,73.85,73.85,0,0,1,7.46-17.24,105.77,105.77,0,0,1,11.22-15.54c2.14-2.48,4.37-4.89,6.66-7.23A42.85,42.85,0,0,1,146.37,22a27.3,27.3,0,0,1,9.15-3.3c3.52-.73,7.08-1.36,10.64-1.88A72.53,72.53,0,0,1,186,16.45c11.9,1.55,23.22,6.33,33.18,12.9a100.44,100.44,0,0,1,26.65,26,88.36,88.36,0,0,1,14.57,35.55,115.76,115.76,0,0,1,0,38.42c-1.92,11.91-5,24.83-12.47,34.56a36.46,36.46,0,0,1-6.12,6.17,2.5,2.5,0,0,0,0,3.53,2.55,2.55,0,0,0,3.54,0Z"/><path class="cls-1" d="M128.44,173.81a84.77,84.77,0,0,0-27.57,5.1c-1.88.69-2.64,3.49-.59,4.57,4.36,2.3,9.14,3.45,13.89,4.65l15,3.79c3.12.78,4.45-4,1.33-4.83L116,183.43c-4.47-1.13-9.07-2.11-13.18-4.27l-.6,4.57a80.51,80.51,0,0,1,26.24-4.92c3.21-.05,3.22-5.05,0-5Z"/><path class="cls-1" d="M241.46,174.76a60.49,60.49,0,0,1,21,10.34l1.26-4.66a153.17,153.17,0,0,0-26.49.4,2.57,2.57,0,0,0-2.5,2.5,2.51,2.51,0,0,0,2.5,2.5,153.17,153.17,0,0,1,26.49-.4,2.53,2.53,0,0,0,2.42-1.83,2.63,2.63,0,0,0-1.15-2.82,64,64,0,0,0-22.19-10.85c-3.11-.84-4.44,4-1.33,4.82Z"/><path class="cls-1" d="M127,189.33c9.84,16.75,16.8,34.94,22.35,53.52,5.61,18.83,9.86,38,14.46,57.13,2.6,10.75,5.31,21.47,8.44,32.08a2.53,2.53,0,0,0,4.57.6,203.69,203.69,0,0,0,24.24-55.13c2.79-10.14,5.39-20.23,9.6-29.9,4.33-9.91,9-19.7,13.46-29.53l15.34-33.54-4.66-1.26,0,2.43c.06,3.21,5.06,3.22,5,0l0-2.43c0-2.31-3.57-3.63-4.65-1.26-9.09,19.87-18.28,39.7-27.27,59.61-2.16,4.81-4.25,9.65-5.95,14.65s-3.07,10.13-4.44,15.25a230.39,230.39,0,0,1-9.53,29,194.65,194.65,0,0,1-15.46,29.61l4.57.6c-5.61-19-9.87-38.37-14.53-57.62-4.62-19.05-9.64-38.07-16.82-56.35a213,213,0,0,0-14.4-29.95c-1.63-2.78-6-.26-4.32,2.52Z"/><path class="cls-1" d="M176.27,325.54a3.67,3.67,0,0,1,.53.34l-.5-.39a3.72,3.72,0,0,1,.71.72l-.39-.5a3.8,3.8,0,0,1,.5.85l-.25-.6.06.15a1.94,1.94,0,0,0,.45.85,2.26,2.26,0,0,0,1.63.94,1.86,1.86,0,0,0,1,0l.6-.25a2.43,2.43,0,0,0,.9-.9l.25-.59a2.5,2.5,0,0,0,0-1.33,7.6,7.6,0,0,0-.56-1.23,2.9,2.9,0,0,0-.19-.29c-.19-.26-.39-.52-.6-.77a4,4,0,0,0-.52-.49,6.54,6.54,0,0,0-1.09-.78,1.9,1.9,0,0,0-.93-.3,1.86,1.86,0,0,0-1,.05,1.78,1.78,0,0,0-.85.44,1.85,1.85,0,0,0-.65.71l-.25.59a2.5,2.5,0,0,0,0,1.33l.25.6a2.59,2.59,0,0,0,.9.9Z"/><path class="cls-1" d="M179.38,326q1-24.76,2-49.51c.68-16.55,1.46-33.09,2.68-49.61q1-13.92,2.53-27.8a2.51,2.51,0,0,0-2.5-2.5,2.56,2.56,0,0,0-2.5,2.5c-1.81,16.38-3,32.81-3.9,49.26s-1.51,33.1-2.17,49.66l-1.12,28c-.13,3.21,4.87,3.21,5,0Z"/><path class="cls-1" d="M207.3,222.92a150,150,0,0,1-4.09,26.64c-.77,3.12,4,4.45,4.82,1.33a157.29,157.29,0,0,0,4.27-28c.2-3.22-4.8-3.2-5,0Z"/><path class="cls-1" d="M155.88,222.06l-.66,15.43L154.9,245l-.18,4-.08,2,0,1c-.08.8,0,.68.33-.39l1.77-.73h-.18l1.26.34-.16-.11.9.9-.1-.16.34,1.26v-.16l-.74,1.77.13-.1a2.51,2.51,0,0,0,0-3.53,2.56,2.56,0,0,0-3.54,0c-1.53,1.2-.84,3.58.64,4.45a2.94,2.94,0,0,0,4.16-1.87,22.79,22.79,0,0,0,.34-5.16l.23-5.23.91-21.15c.14-3.22-4.86-3.21-5,0Z"/><path class="cls-1" d="M181.81,160.49a93.93,93.93,0,0,0-15.05,21.6,2.51,2.51,0,0,0,3.93,3,116.32,116.32,0,0,0,15.76-17.28l-4.65-1.26c-.16,3.47,1.76,6.31,3.67,9a20.76,20.76,0,0,1,2.43,4.21,42,42,0,0,1,1.63,5.62,2.49,2.49,0,0,0,2.75,1.79,2.53,2.53,0,0,0,2.16-2.45c.47-4.41-1.33-9-2.63-13.14S189,163.14,187.29,159a2.57,2.57,0,0,0-3.07-1.75,2.52,2.52,0,0,0-1.75,3.08c1.6,4,3.07,8.07,4.37,12.19q.94,3,1.78,6a16.59,16.59,0,0,1,.82,6.29l4.91-.67A30.33,30.33,0,0,0,190.43,174c-1.5-2.24-3.76-4.58-3.63-7.44a2.55,2.55,0,0,0-1.84-2.41,2.6,2.6,0,0,0-2.82,1.15,111.07,111.07,0,0,1-15,16.27l3.93,3A89.28,89.28,0,0,1,185.34,164c2.19-2.35-1.34-5.9-3.53-3.53Z"/><path class="cls-1" d="M204.24,94.06c-5.15,4.36-7.53,11.08-9.7,17.48-3,8.9-6,18.6-3,27.51a43.11,43.11,0,0,0,4.94,9.25,50.4,50.4,0,0,0,6.08,8.19c9.17,9.4,25.1,10.2,36.36,3.43a25.46,25.46,0,0,0,9.59-9.65,29.66,29.66,0,0,0,2.88-10.22c1.55-12.7-1.52-26.11-9.35-36.23S221.47,87.25,208.69,88a14.17,14.17,0,0,0-6.57,1.66c-2.58,1.53-4.22,4.25-5.49,7a48.67,48.67,0,0,0-4.56,20c0,.71-.18,1.64-.89,1.72s-.2-1.43.09-.78"/><path class="cls-1" d="M202.48,92.29c-6.54,5.65-9.14,14.62-11.66,22.57-2.93,9.25-4.67,19.09-.33,28.19a70.29,70.29,0,0,0,7.44,11.84,29.2,29.2,0,0,0,9,8.09,33.22,33.22,0,0,0,22,3.29,31.93,31.93,0,0,0,20.23-12.34,28.21,28.21,0,0,0,4.56-12.78,54.29,54.29,0,0,0,.28-12.74,51,51,0,0,0-8.5-24,44.36,44.36,0,0,0-18.81-15.51,42,42,0,0,0-12.15-3.23c-4.25-.47-9-.45-12.93,1.44s-6.22,6-7.88,9.94A51.9,51.9,0,0,0,190,110.85q-.22,1.7-.33,3.42c0,.61-.06,1.22-.07,1.83a2.58,2.58,0,0,0,0,.62c.09.3-.35.09.13-.29l1.1-.64.23,0,1.26.34-.11-.08.9.9-.71,2.57-1.93.25.09,0L189,118.63l.08.13c1.79,2.65,6.13.15,4.32-2.52a2.73,2.73,0,0,0-5,.86,2.92,2.92,0,0,0,4.3,3.26c2.14-1.26,1.81-4,1.93-6.09a45.93,45.93,0,0,1,.9-6.6,40.85,40.85,0,0,1,4.52-12.26,9.69,9.69,0,0,1,3.68-3.83,13.24,13.24,0,0,1,5.73-1.15c15.83-.53,30.1,10.13,36.09,24.43A49.51,49.51,0,0,1,249,138.63c-.4,4.16-1.31,8.39-3.61,11.94a24,24,0,0,1-8.54,7.64,29.49,29.49,0,0,1-19.94,3.13,25.74,25.74,0,0,1-9.36-3.86,29.51,29.51,0,0,1-7.74-8.57c-2.45-3.71-5.12-7.51-6.3-11.84a28.45,28.45,0,0,1,0-13.17,107,107,0,0,1,3.91-13.21A46.67,46.67,0,0,1,202.29,100,20.49,20.49,0,0,1,206,95.82a2.51,2.51,0,0,0,0-3.53,2.54,2.54,0,0,0-3.53,0Z"/><path class="cls-1" d="M147.22,91.94c-7.31.23-13.62,5.4-17.83,11.38C118.58,118.67,119,141,130.43,156c2.86,3.74,6.54,7.14,11.1,8.28,6.91,1.71,13.92-2.09,19.71-6.22,9.8-7,19.16-16.36,20.71-28.29,1-7.32-1.18-14.66-3.3-21.74-1.78-6-3.92-12.42-9.13-15.82-3.89-2.53-8.89-2.87-13.43-1.92s-8.74,3.06-12.88,5.15"/><path class="cls-1" d="M147.22,89.44c-15.14.66-24.83,16.85-27.29,30.25-2.56,14,.81,29.25,10.37,40a22.61,22.61,0,0,0,9.26,6.54,18.69,18.69,0,0,0,12.09-.23,42,42,0,0,0,11-6,82.61,82.61,0,0,0,8.74-7.1c5.32-5,9.92-11.15,12-18.25,2.53-8.51.61-17.25-1.83-25.53-2-7-4.24-14.62-10.52-19-7.07-4.89-16.19-2.91-23.47.29-1.92.84-3.8,1.79-5.67,2.73-2.88,1.45-.35,5.77,2.52,4.32,6.16-3.11,13.23-6.71,20.31-4.78,6.27,1.71,8.93,7.86,10.74,13.53,2.34,7.32,4.95,15.26,4,23-.79,6.32-4.16,12-8.34,16.7a65.13,65.13,0,0,1-15.63,12.71c-3,1.76-6.42,3.27-10,3.39a13.12,13.12,0,0,1-8.75-3.09c-4.8-3.89-8.22-9.72-10.24-15.5a45.09,45.09,0,0,1-2.36-18.22,41.77,41.77,0,0,1,5.26-17.45c3-5.29,7.49-10.55,13.41-12.59a15.05,15.05,0,0,1,4.35-.85c3.2-.14,3.22-5.14,0-5Z"/></svg>