<svg id="Layer_1" data-name="Layer 1" xmlns="http://www.w3.org/2000/svg" viewBox="0 0 360 360"><defs><style>.cls-1{fill:#231f20;}</style></defs><path class="cls-1" d="M256.55,224c17.2-6.11,30.19-19.67,39.73-34.83,5.29-8.39,10.12-17.5,13-27a68,68,0,0,0,1.87-30.35,68.75,68.75,0,0,0-4.89-16.53c-2.3-5.29-5.34-10.27-6.78-15.9-.66-2.54-4-2.2-4.83,0-1.38,3.78-2.88,8.19-6.35,10.58a7.4,7.4,0,0,1-5,1.51c-2.28-.28-4.32-1.39-6.68-.77-2.59.67-3.69,3.08-4.63,5.34s-1.61,4.46-2.53,6.65c-1.35,3.21-3.75,7.07-7.61,7.36-2.77.2-5.26-.07-7.86,1.13a11,11,0,0,0-5.16,5.06h4.32l-3.2-7.1a49.09,49.09,0,0,0-3.17-6.86,4.93,4.93,0,0,0-6.6-1.61c-1.79.86-3.29,2.17-5.14,3-3.62,1.55-7.55,2.23-11.2,3.69a20.73,20.73,0,0,0-9.57,7.49c-2.24,3.18-3.91,7.17-7.5,9.05l3,3.92,2-2.34a2.58,2.58,0,0,0,0-3.54,2.54,2.54,0,0,0-3.54,0l-2,2.35a2.51,2.51,0,0,0,3,3.92c6.41-3.35,7.67-11.55,13.88-15.05,3.12-1.75,6.7-2.48,10.08-3.56a35.88,35.88,0,0,0,5.37-2.12,18.56,18.56,0,0,0,2.19-1.3c.47-.32,1.37-1.19,1.94-1.18-.38,0,0,.25.14.6.3.62.57,1.25.85,1.88l1.7,3.77,3.39,7.54c.76,1.68,3.53,1.59,4.32,0a6.36,6.36,0,0,1,3.63-3.35c2.29-.78,4.85-.11,7.22-.66,4.19-1,7.37-4.56,9.21-8.29,1.1-2.25,1.89-4.63,2.77-7a28.22,28.22,0,0,1,1.23-2.95c.42-.84.57-1.15,1.53-1,2.12.28,4,1.15,6.19.92a12.89,12.89,0,0,0,6.4-2.51c4.36-3.26,6.35-8.26,8.17-13.22h-4.83c1.27,4.94,3.68,9.46,5.88,14a66.25,66.25,0,0,1,4.87,13.67,63.11,63.11,0,0,1,.08,28.61c-2.2,9.39-6.7,18.2-11.59,26.46a103.45,103.45,0,0,1-15.34,20.33,62.7,62.7,0,0,1-23.33,15.35,2.58,2.58,0,0,0-1.75,3.08,2.53,2.53,0,0,0,3.08,1.75Z"/><path class="cls-1" d="M214.34,140.57l-.63,9.72a2.52,2.52,0,0,0,3.17,2.41,3.88,3.88,0,0,0,2.7-2.71,2.5,2.5,0,1,0-4.82-1.33c-.07.25,0,.17.11-.24s.32-.39.19-.25-.05.07.25-.19.49-.18.24-.1l3.16,2.41.63-9.72a2.51,2.51,0,0,0-2.5-2.5,2.55,2.55,0,0,0-2.5,2.5Z"/><path class="cls-1" d="M239.09,122.28a16.61,16.61,0,0,1-5.52-10.14l-1.75,3.08,12.07-5.07c.92-.38,2-1.24,1.84-2.41a74.87,74.87,0,0,0-9.41-28.35l-2.16,3.76,10.26,1.2c2.88.34,5.75.42,7.93-1.82a8.9,8.9,0,0,0,2.34-6.75,11.59,11.59,0,0,0-3.58-7.21,37.48,37.48,0,0,0-6.67-5,88.35,88.35,0,0,0-8-4.52A81.29,81.29,0,0,0,219,52.72a157,157,0,0,0-19.54-3c-6.48-.67-13-1.35-19.48-1.65a93.13,93.13,0,0,0-19.31.93,79.1,79.1,0,0,0-18.31,5.78C130.15,60,118,65.39,106,70.88a91.19,91.19,0,0,0-15.85,8.8A67.34,67.34,0,0,0,77.6,91.59c-7.47,9.08-13.4,19.58-18.26,30.26-5.11,11.21-8.85,23.05-10,35.36-1.09,11.64.21,23.75,4.66,34.61C58.81,203.6,67.38,213,75.54,222.5L82,230a2.51,2.51,0,0,0,3.53,0,2.55,2.55,0,0,0,0-3.54Q79.31,219.24,73.11,212a106.94,106.94,0,0,1-10.58-14.12A63.6,63.6,0,0,1,54,166.68c-.53-22.7,9.1-44.93,21.36-63.61C81.29,94,88.56,86.05,98,80.54a158.67,158.67,0,0,1,16-7.77l17.38-7.68c11.12-4.93,22.16-10.54,34.44-11.74,12.13-1.19,24.48.36,36.54,1.7,11.89,1.32,23.41,3.85,34,9.55,2.56,1.38,5.05,2.89,7.47,4.51a16.46,16.46,0,0,1,5.05,4.56,4.55,4.55,0,0,1,.38,4.76,2.05,2.05,0,0,1-1.33,1.11c-1.38.31-3.06-.14-4.44-.3l-9.29-1.09c-1.95-.23-3,2.27-2.16,3.76a68.53,68.53,0,0,1,8.73,25.83l1.83-2.41-12.07,5.07a2.6,2.6,0,0,0-1.74,3.07,20.9,20.9,0,0,0,6.81,12.35,2.55,2.55,0,0,0,3.53,0,2.53,2.53,0,0,0,0-3.54Z"/><path class="cls-1" d="M192.91,134.86a30,30,0,0,0-5.21,14.75c-.21,2.95.06,6.08,1.64,8.58a17.37,17.37,0,0,0,5.35,4.84c18.7,12.44,39.74,20.81,60.26,29.93a3.19,3.19,0,0,1,1.59,1.16c.65,1.16-.35,2.55-1.38,3.4-5.83,4.85-14,5.41-21.55,5.75-10.45.48-21.75.72-30.32-5.27a84.74,84.74,0,0,1-.56,30.17C202,232,200,236.65,196,236.84c-3.26.15-5.81-3.19-6.07-6.44s1.09-6.39,2.29-9.43a119.75,119.75,0,0,0,5.5-17.77,8.07,8.07,0,0,0,.07-4.74c-.62-1.56-2.1-2.58-3.31-3.74-4.68-4.5-5.64-11.52-6.34-18l-2.06-19.17"/><path class="cls-1" d="M190.76,133.6a32.69,32.69,0,0,0-5.43,14.73c-.6,5.17.3,10.44,4.34,14a49.37,49.37,0,0,0,6.45,4.56q3.47,2.2,7,4.27c4.76,2.74,9.63,5.29,14.55,7.71,9.89,4.85,20,9.19,30.1,13.61l3.78,1.66,1.68.74c.24.11.49.21.72.33a3.21,3.21,0,0,1,.45.24q.33.21-.06-.12c-.07-1-.12-.52-.44-.14a6.23,6.23,0,0,1-1.14,1,19.35,19.35,0,0,1-3.22,1.85c-4.2,1.92-9,2.33-13.57,2.59-10.48.6-22.37,1.43-31.46-4.81-2-1.37-4,.89-3.67,2.82a81.26,81.26,0,0,1-.21,27c-.47,2.71-1,6.5-3.39,8.26a2.37,2.37,0,0,1-2.62.13,4.81,4.81,0,0,1-2.09-3.09,10.09,10.09,0,0,1,.6-5.29c.68-2.11,1.59-4.14,2.36-6.21a118.46,118.46,0,0,0,4-12.76c.54-2.14,1.3-4.48,1.15-6.71a8.22,8.22,0,0,0-2.77-5.54,20.31,20.31,0,0,1-3.55-3.86,18.5,18.5,0,0,1-2-4.55c-1.23-4.12-1.55-8.43-2-12.68l-1.69-15.73a2.58,2.58,0,0,0-2.5-2.5,2.51,2.51,0,0,0-2.5,2.5l1.64,15.24a96.54,96.54,0,0,0,1.84,13,21.78,21.78,0,0,0,5.65,10.65c1.25,1.21,3,2.18,2.91,4.11a32.42,32.42,0,0,1-1.58,7,131.53,131.53,0,0,1-4.64,13.71c-1.68,4.23-3,8.8-.85,13.11,1.74,3.56,5.84,5.9,9.74,4.44,3.56-1.34,5.45-5,6.42-8.46a68.37,68.37,0,0,0,2.08-16.12,88.64,88.64,0,0,0-1.13-17L202,200.16c8.66,5.94,19.63,6.1,29.74,5.69,5.1-.21,10.31-.4,15.29-1.67a26.68,26.68,0,0,0,6.78-2.7c2.2-1.27,4.77-3,5.3-5.71.66-3.26-2.14-4.62-4.61-5.71-2.65-1.18-5.32-2.34-8-3.5-5.19-2.27-10.38-4.54-15.53-6.88A272.31,272.31,0,0,1,201,164.08a59.33,59.33,0,0,1-7.46-5,9,9,0,0,1-3.34-6.66,26.76,26.76,0,0,1,4.9-16.33c1.82-2.66-2.51-5.17-4.31-2.52Z"/><path class="cls-1" d="M148.22,137.55c2.37,3.17,1.37,7.91-1.2,10.92s-6.32,4.71-9.94,6.31C117,163.64,96.87,172.53,76,179.31c4.11,7.13,9.19,13.86,15.91,18.61s15.25,7.32,23.31,5.66c12-2.48,20.24-13.35,26.09-24.08a52.74,52.74,0,0,0,5.8-14.34,31.73,31.73,0,0,0-.07-13"/><path class="cls-1" d="M146.06,138.81c2.61,3.7-.29,8.13-3.49,10.32a41.87,41.87,0,0,1-6.75,3.49l-8.36,3.68c-11,4.81-21.95,9.54-33.12,13.83-6.28,2.41-12.62,4.69-19,6.77a2.54,2.54,0,0,0-1.49,3.68c4,6.89,8.85,13.41,15.21,18.31s14.35,8.08,22.46,7.66c15.35-.79,25.57-13.92,32.29-26.39a55.81,55.81,0,0,0,5.52-13.44,35.18,35.18,0,0,0,.13-15.25,2.5,2.5,0,0,0-4.83,1.33c1.67,7.94-.37,15.51-4,22.6a71.36,71.36,0,0,1-11.08,16.65c-4.28,4.58-9.56,8.2-15.84,9.27-6.93,1.18-14.15-1.25-19.87-5.09-6.74-4.52-11.68-11.25-15.7-18.18l-1.5,3.67c12.27-4,24.29-8.7,36.17-13.7,6-2.51,11.9-5.09,17.82-7.69,2.88-1.27,5.77-2.52,8.64-3.81a33,33,0,0,0,7.46-4.31c4.52-3.67,7.33-10.69,3.64-15.93a2.56,2.56,0,0,0-3.42-.89,2.52,2.52,0,0,0-.9,3.42Z"/><path class="cls-1" d="M157.35,210.87a81.43,81.43,0,0,0-13.6,24.75c.85.7,2.09-.07,2.9-.81a143.15,143.15,0,0,0,11.54-12l4.18,11.4c.67,1.83,1.78,4,3.73,4a135.84,135.84,0,0,0-7-31,120.41,120.41,0,0,1-10,14.49,16.64,16.64,0,0,1,5.13-6.77,18.18,18.18,0,0,0,1.26,9.19,10.86,10.86,0,0,0,1-6l1.78,2.52A3.39,3.39,0,0,0,159,218v3.88"/><path class="cls-1" d="M155.58,209.1A86.33,86.33,0,0,0,141.34,235a2.52,2.52,0,0,0,1.15,2.82c3.7,2.26,7.27-2.4,9.6-4.71q4.11-4.06,7.87-8.44l-4.18-1.1q2,5.46,4,10.94c1.12,3,2.7,6,6.31,6.3a2.51,2.51,0,0,0,2.5-2.5,140.54,140.54,0,0,0-7-31.63A2.53,2.53,0,0,0,157,206a119.84,119.84,0,0,1-9.56,14l3.92,3a15.57,15.57,0,0,1,4.74-6.26L151.81,215a20.34,20.34,0,0,0,1.35,9.85,2.55,2.55,0,0,0,2.08,1.79,2.48,2.48,0,0,0,2.49-1.19,13.85,13.85,0,0,0,1.38-7.22l-4.66,1.26,1.78,2.52a2.54,2.54,0,0,0,4.32,0,6.22,6.22,0,0,0,.89-4.68,2.47,2.47,0,0,0-2.74-1.79,2.51,2.51,0,0,0-2.17,2.46v3.88c0,3.22,5,3.23,5,0V218l-4.91.66c0,.29-.25.62-.39.83h4.32L158.77,217a2.57,2.57,0,0,0-2.82-1.15,2.51,2.51,0,0,0-1.84,2.41,8.93,8.93,0,0,1-.7,4.7l4.57.59a17.12,17.12,0,0,1-1.17-8.52,2.46,2.46,0,0,0-1.53-2.29,2.59,2.59,0,0,0-2.73.52,18.59,18.59,0,0,0-5.52,7.28,2.54,2.54,0,0,0,.64,3.22,2.47,2.47,0,0,0,3.28-.19,129.34,129.34,0,0,0,10.35-15l-4.57-.6a134.68,134.68,0,0,1,6.87,30.3l2.5-2.5c.11,0,.11.14,0,0-.38-.43.36.51-.32-.3a5.16,5.16,0,0,1-.61-1,34.15,34.15,0,0,1-1.34-3.53l-3.18-8.66c-.59-1.62-2.84-2.65-4.17-1.1-2,2.33-4.09,4.6-6.25,6.8q-1.53,1.58-3.11,3.09l-1.68,1.59a7.81,7.81,0,0,0-.59.56c-.49.54-.57-.15.21.33l1.15,2.82a79.41,79.41,0,0,1,13-23.65,2.57,2.57,0,0,0,0-3.53,2.51,2.51,0,0,0-3.53,0Z"/><path class="cls-1" d="M254.21,223l7.55,6.89,3.92,3.58,2,1.79c.21.2.44.39.64.61a1.17,1.17,0,0,1,.28.4c-.08-.26.1-.44-.09,0,.15-.32-.27.28-.05.06a2.76,2.76,0,0,1-1.27.69,25.68,25.68,0,0,1-4.37.7,59,59,0,0,1-10,.15,2.5,2.5,0,0,0,0,5,59.23,59.23,0,0,0,11.68-.34c3.67-.48,8.47-1.28,9-5.79.25-2-.84-3.65-2.28-5s-3-2.72-4.47-4.09l-8.95-8.17a2.56,2.56,0,0,0-3.54,0,2.54,2.54,0,0,0,0,3.54Z"/><path class="cls-1" d="M83.25,227.78q-5.62,2.66-11.35,5.11c-1.84.79-3.7,1.57-5.55,2.33a26.71,26.71,0,0,0-5,2.22c-3.25,2.17-3.92,6.07-2.16,9.46s5.39,4.72,8.84,5.23a65.67,65.67,0,0,0,13.8.53,2.56,2.56,0,0,0,2.5-2.5,2.52,2.52,0,0,0-2.5-2.5,56.16,56.16,0,0,1-13-.44,8.74,8.74,0,0,1-4.48-1.73,3.08,3.08,0,0,1-1-3c.43-1.09,2.44-1.65,3.58-2.11q3.18-1.29,6.35-2.64,6.35-2.68,12.58-5.63a2.53,2.53,0,0,0,.9-3.42,2.58,2.58,0,0,0-3.43-.9Z"/><path class="cls-1" d="M82.11,249.07A85.42,85.42,0,0,0,64.43,269c-2.21,3.43-4.48,7.13-5.1,11.23-.66,4.41.93,8.61,5.1,10.64s9.06,2.85,13.58,3.66c4.87.86,9.79,1.44,14.7,2l31,3.61c20.39,2.37,40.81,5.2,61.34,6,9.9.39,19.92.44,29.75-.92,8.76-1.22,17.53-3.88,24.74-9.14,6.39-4.67,11.65-11.11,13.72-18.86,2.53-9.45,0-19.25-3.44-28.11-.89-2.29-1.84-4.55-2.81-6.8a2.52,2.52,0,0,0-3.42-.9,2.57,2.57,0,0,0-.9,3.42c3.46,8.07,7,16.7,6.58,25.64-.33,7.5-4.08,14.11-9.57,19.08-12.85,11.66-31.88,12-48.25,11.77-19.44-.32-38.78-2.83-58.07-5.08l-29.24-3.4c-9.34-1.09-18.79-1.87-28-3.79-2.3-.48-4.6-1-6.86-1.72-1.48-.45-3.26-.95-4.26-2.24-2-2.53-.26-6.54,1-9a76,76,0,0,1,15-19.45q2.23-2.12,4.61-4.07a2.5,2.5,0,0,0,0-3.53,2.54,2.54,0,0,0-3.53,0Z"/><path class="cls-1" d="M254.31,240.24A50.57,50.57,0,0,0,245,240a2.5,2.5,0,0,0,0,5,50.57,50.57,0,0,1,9.29.2,2.49,2.49,0,0,0,1.77-.73,2.57,2.57,0,0,0,.73-1.77,2.53,2.53,0,0,0-.73-1.77,2.93,2.93,0,0,0-1.77-.73Z"/><path class="cls-1" d="M148.58,268.39l.07-.35A2.58,2.58,0,0,0,146.9,265a2.53,2.53,0,0,0-3.07,1.75q-4,16.14-8.49,32.16c-.74,2.66,3.3,4.53,4.57,1.93l.7-1.44a2.56,2.56,0,0,0-.9-3.42,2.51,2.51,0,0,0-3.42.89l-.7,1.44,4.57,1.93q4.46-16,8.49-32.16l-4.82-1.33-.07.35a2.57,2.57,0,0,0,1.75,3.07,2.51,2.51,0,0,0,3.07-1.74Z"/><path class="cls-1" d="M206.35,271.53c.53.83-.14,2.18-.39,3-.42,1.44-.85,2.87-1.29,4.3q-1.38,4.39-2.94,8.73-3.1,8.58-6.94,16.87a2.57,2.57,0,0,0,.89,3.42,2.52,2.52,0,0,0,3.42-.9q4.32-9.28,7.77-18.95,1.66-4.68,3.1-9.42c.91-3,2.55-6.68.69-9.61-1.72-2.71-6-.21-4.31,2.52Z"/><path class="cls-1" d="M91.08,266.14a265.36,265.36,0,0,1-10.39,26.57,2.59,2.59,0,0,0,.9,3.43,2.53,2.53,0,0,0,3.42-.9,284,284,0,0,0,10.9-27.77c1-3.06-3.82-4.37-4.83-1.33Z"/></svg>