<svg id="Layer_1" data-name="Layer 1" xmlns="http://www.w3.org/2000/svg" viewBox="0 0 360 360"><defs><style>.cls-1{fill:#231f20;}</style></defs><path class="cls-1" d="M264.67,180.6c3.34,3.15,7-.88,9.14-3.32a58.57,58.57,0,0,0,6.07-8.12,65.37,65.37,0,0,0,7.78-18.66,80.39,80.39,0,0,0-1.27-41.84c-4.2-14.42-11.7-27.72-20.68-39.68-4.73-6.3-9.75-12.57-15.9-17.56a78.12,78.12,0,0,0-20.56-11.51,118.45,118.45,0,0,0-43-8.09,142.41,142.41,0,0,0-43.88,6.83A153.08,153.08,0,0,0,121.68,47c-6.84,3.33-13.83,7-19.18,12.56S93.24,72.34,89.76,79.27a143.87,143.87,0,0,0-8.91,22.07,112.68,112.68,0,0,0-4.68,45.74,97.89,97.89,0,0,0,5.1,22.14,90.46,90.46,0,0,0,4.62,10.59c.84,1.65,1.75,3.28,2.71,4.86S90.42,188.14,92,189a3.1,3.1,0,0,0,4.69-2.48c0-1.85-1.7-3.85-3.68-3a2.59,2.59,0,0,0-1.75,3.08,2.52,2.52,0,0,0,3.08,1.74l.16-.06H93.16l.14,0-1.1-.64-.49-1.6.64-1.1.22-.17,1.26-.34c1,0,.72.66.45-.11a6.81,6.81,0,0,0-.69-1.08c-.46-.73-.9-1.46-1.33-2.21q-1.4-2.4-2.64-4.9a80.81,80.81,0,0,1-3.88-9.26,91.72,91.72,0,0,1-4.61-20.23,108.29,108.29,0,0,1,4-42.27A133.52,133.52,0,0,1,92.9,84.2c3.07-6.41,6.42-13.12,10.93-18.65s10.66-9.3,17-12.59a144.32,144.32,0,0,1,18.5-8c25.52-9,53.85-11.14,79.93-3.24a95.23,95.23,0,0,1,19.19,8,62.89,62.89,0,0,1,16.62,13.91,137.63,137.63,0,0,1,22.5,35.19c5.16,12,8,25,7.16,38.07-.77,12.21-4.72,24.55-12.3,34.27-.88,1.13-1.82,2.22-2.8,3.28-.52.56-1,1.11-1.59,1.65a7.17,7.17,0,0,0-.58.52c-.52.72-.84-1.06.75.45-2.34-2.21-5.88,1.32-3.54,3.53Z"/><path class="cls-1" d="M96.66,184.61c-5.64-1.11-11.23-.13-16.74,1.17s-11.21,2.71-16.82,4.07c-2.58.62-2.15,4,0,4.82,9.22,3.45,19.49,5.64,27.12,12.24a2.56,2.56,0,0,0,3.53,0,2.53,2.53,0,0,0,0-3.54c-8.36-7.23-19.21-9.74-29.32-13.52v4.82q7.95-1.92,15.9-3.84c4.87-1.17,10-2.39,15-1.4a2.55,2.55,0,0,0,3.07-1.74,2.52,2.52,0,0,0-1.74-3.08Z"/><path class="cls-1" d="M267.71,183.17c5.12.45,9.56,3.52,13.66,6.35,2.18,1.51,4.35,3,6.63,4.4a38.18,38.18,0,0,0,3.64,1.91,14.21,14.21,0,0,1,3.67,1.9l1.77-4.26a230.15,230.15,0,0,0-33.61,1.8,2.58,2.58,0,0,0-2.5,2.5,2.51,2.51,0,0,0,2.5,2.5,230.15,230.15,0,0,1,33.61-1.8c2.08,0,3.41-2.83,1.76-4.27-2.3-2-5.37-2.88-8-4.41s-4.87-3.16-7.26-4.8c-4.85-3.33-9.9-6.3-15.88-6.82a2.52,2.52,0,0,0-2.5,2.5,2.55,2.55,0,0,0,2.5,2.5Z"/><path class="cls-1" d="M91.37,204.47l-14,48.63-4,13.83a2.51,2.51,0,0,0,2.41,3.16c24-1,48-.34,72,.69s47.93,2.51,71.88,3.88L260.17,277a2.52,2.52,0,0,0,2.41-3.17,348.68,348.68,0,0,1-12.28-58.24q-1-8.46-1.65-17a2.56,2.56,0,0,0-2.5-2.5,2.51,2.51,0,0,0-2.5,2.5,356.39,356.39,0,0,0,9.53,59.86q2.08,8.4,4.58,16.67l2.41-3.16q-36.08-2.07-72.15-4.12c-23.94-1.36-47.89-2.64-71.87-3.1-13.46-.26-26.94-.23-40.4.33l2.41,3.16,14-48.62,4-13.83c.9-3.09-3.93-4.42-4.82-1.33Z"/><path class="cls-1" d="M265.6,195.1A146.58,146.58,0,0,0,240.91,194c-3.2.12-3.23,5.08,0,5l1.6,0c3.21-.08,3.23-5.08,0-5l-1.6,0v5a146.58,146.58,0,0,1,24.69,1.15,2.52,2.52,0,0,0,2.5-2.5,2.55,2.55,0,0,0-2.5-2.5Z"/><path class="cls-1" d="M230.24,115.76c-6.55-4.42-15.46-.75-21.88,3.85a85.27,85.27,0,0,0-27.4,33c-1.86,4-3.43,8.29-3,12.66a23.61,23.61,0,0,0,2.53,7.88c3.13,6.49,7.42,12.55,13.2,16.85s13.19,6.69,20.31,5.58a33.31,33.31,0,0,0,8.07-2.52c16.31-7.14,29.24-22.74,31-40.46s-9.27-36.52-26.28-41.77"/><path class="cls-1" d="M231.5,113.6c-7.77-5.06-17.62-1-24.4,3.85a88.61,88.61,0,0,0-19,18.54,85.63,85.63,0,0,0-7.19,11.17c-2.25,4.19-4.5,8.69-5.24,13.42-.79,5.1.61,9.67,2.84,14.21a53.29,53.29,0,0,0,7.35,11.29c5.93,6.92,14.36,11.89,23.6,12.27,4.92.2,9.58-1.22,14-3.19a53.84,53.84,0,0,0,10.2-5.93c12.92-9.52,22.35-24.73,22-41.14-.33-15.2-9-30.66-22.86-37.48a37.36,37.36,0,0,0-5.42-2.17c-3.07-1-4.39,3.86-1.33,4.82,13.08,4.11,22,16.56,24.16,29.76,2.36,14.13-4.18,28.28-14.31,37.89A48.94,48.94,0,0,1,217,192.32c-7.91,2.43-16.32.18-22.69-4.94a38.85,38.85,0,0,1-7.86-8.72,41.23,41.23,0,0,1-5.52-11c-1.22-4.27-.13-8.51,1.61-12.48a79.15,79.15,0,0,1,5.88-10.92,83.26,83.26,0,0,1,15.75-18.16c5.44-4.69,12.5-10.25,20.13-9.77a9.66,9.66,0,0,1,4.66,1.62c2.7,1.76,5.21-2.56,2.52-4.31Z"/><path class="cls-1" d="M112.78,108.87a25.18,25.18,0,0,0-18,14.23c-2.59,5.82-2.84,12.4-2.58,18.76.48,11.63,2.65,23.53,8.91,33.34S118.4,192.38,130,191.89a16.71,16.71,0,0,0,8.89-2.65c3.83-2.68,5.76-7.32,7-11.82a70.84,70.84,0,0,0-6.68-53.88,38.76,38.76,0,0,0-5.94-8.09,27,27,0,0,0-24.24-7.18c-1,.22-2.32,1.29-1.58,2"/><path class="cls-1" d="M112.12,106.46A27.85,27.85,0,0,0,94.05,119.2c-4.56,7.53-4.7,16.73-4.16,25.25C90.94,161,96,178.1,110.1,188.1c6.18,4.39,14,7,21.64,6.15,4.22-.48,8.29-2,11.18-5.24a26.51,26.51,0,0,0,5.28-10.38,73.52,73.52,0,0,0-3.29-49.37c-3.28-7.61-7.82-15.23-15-19.67a29.22,29.22,0,0,0-10.9-4,29.68,29.68,0,0,0-5.88-.34c-1.93.09-4.27.19-6,1.13s-3.12,3.32-1.75,5.2a2.57,2.57,0,0,0,3.42.89,2.52,2.52,0,0,0,.89-3.42s-.07,1.79-.2,1.71c.16.1,1-.22,1.23-.26a18.59,18.59,0,0,1,2.22-.24,23.92,23.92,0,0,1,4.93.19,25.06,25.06,0,0,1,9.35,3.35c6.26,3.79,10.06,10.51,13,17a68.28,68.28,0,0,1,4.15,42.87,34.25,34.25,0,0,1-3.36,9.55,11.56,11.56,0,0,1-7.56,5.69c-6.37,1.53-13.26-.45-18.72-3.78-12.45-7.61-17.84-22.05-19.38-36-.83-7.5-1.4-15.69,1-23a22.68,22.68,0,0,1,12.54-13.57,23,23,0,0,1,4.62-1.39,2.52,2.52,0,0,0,1.74-3.07,2.55,2.55,0,0,0-3.07-1.75Z"/><path class="cls-1" d="M155.5,193.05c-2.13,6.87-8.06,12.79-7.46,19.95a2,2,0,0,0,.21.86c.64,1.07,2.29.35,3.24-.46l8.07-6.87a3.47,3.47,0,0,1,2.46-1.15,3.35,3.35,0,0,1,1.92,1.25c2.69,2.92,5.56,6.67,9.53,6.44a1.56,1.56,0,0,0,1-.36,1.76,1.76,0,0,0,.2-1.59c-1.8-8.72-6.35-16.68-11.91-23.63-.75-.93-1.68-1.92-2.86-1.9s-2.13,1.13-2.8,2.16a39.76,39.76,0,0,0-4,8.19"/><path class="cls-1" d="M153.09,192.39c-2.13,6.61-7.41,12-7.59,19.28-.05,2,.34,4.27,2.48,5a5.38,5.38,0,0,0,5-1.29c1.65-1.32,3.23-2.74,4.84-4.11l2.38-2c.37-.31.73-.64,1.1-.93a2.79,2.79,0,0,0,.31-.24c.41-.48.12.08-.15-.29.36.49,1,1,1.43,1.44.59.65,1.17,1.31,1.78,1.94a17,17,0,0,0,4,3.24,8.78,8.78,0,0,0,5.13,1.13c2.63-.28,3.72-2.46,3.29-4.89-1.3-7.36-5-14.43-9.26-20.5-2.2-3.13-5.45-8.8-10.07-6.49-1.95,1-3.12,3.19-4.14,5a45.34,45.34,0,0,0-3,6.62,2.5,2.5,0,1,0,4.82,1.33,37.31,37.31,0,0,1,2.17-4.83q.65-1.2,1.38-2.37c.22-.34.68-1.26,1.13-1.37-.49.12.12.38.38.67.45.49.85,1,1.25,1.56,1,1.35,2,2.74,3,4.16a58.74,58.74,0,0,1,4.8,8.73,43.31,43.31,0,0,1,1.67,4.54c.23.74.44,1.49.63,2.24.11.41.2.82.3,1.24,0,.2.09.41.13.62s0,0,.05-.34l.9-.9s.49.08,0,0c-.17,0-.36,0-.53,0a4.26,4.26,0,0,1-.69-.15,6.26,6.26,0,0,1-1.87-1,22.27,22.27,0,0,1-3.25-3.19c-1.22-1.34-2.4-2.85-4.26-3.26-2.28-.49-4,1.05-5.64,2.41l-4.58,3.91c-.79.67-1.58,1.36-2.38,2-.23.18-.46.31-.68.48,0,0-.47.46-.17.08-.23.05-.2.07.08.05s.59.14.73.54c.91,1,.36.55.46.15a4.79,4.79,0,0,0,0-.76,8.41,8.41,0,0,1,.06-1.12,12.33,12.33,0,0,1,.45-2.07,25.1,25.1,0,0,1,1.8-4.32c1.8-3.51,3.89-6.86,5.1-10.63,1-3.07-3.83-4.39-4.82-1.33Z"/><path class="cls-1" d="M103.79,246.9l.18.07-1.1-.65a1.4,1.4,0,0,1-.37-1.38c-.09.28-.08.3,0,.05a10.52,10.52,0,0,1-.77,1.23l-1.53,2.42-3.18,5-6.46,10.19a2.5,2.5,0,0,0,4.31,2.53l7.89-12.44c1.28-2,2.59-4,3.84-6s1.1-4.88-1.5-5.8a2.5,2.5,0,1,0-1.33,4.82Z"/><path class="cls-1" d="M141.8,232.4a287.69,287.69,0,0,0-12.6,33.07c-1,3.08,3.87,4.4,4.82,1.33a276.53,276.53,0,0,1,12.1-31.87,2.57,2.57,0,0,0-.9-3.42,2.52,2.52,0,0,0-3.42.89Z"/><path class="cls-1" d="M180.86,233.58c.57,12.35,1.79,24.65,3.59,36.89.35,2.37,4.49,2.39,4.82,0a2.52,2.52,0,0,1,.28-1c1.58-2.81-2.73-5.33-4.32-2.53a6.18,6.18,0,0,0-.78,2.19h4.82a356.17,356.17,0,0,1-3.41-35.56c-.15-3.21-5.15-3.22-5,0Z"/><path class="cls-1" d="M218.51,243.6A142.18,142.18,0,0,1,223,271.93c.17,3.19,5.07,3.24,5,0l-.06-2.87c-.07-3.21-5.07-3.22-5,0l.06,2.87h5a148.83,148.83,0,0,0-4.65-29.66c-.82-3.11-5.64-1.79-4.82,1.33Z"/><path class="cls-1" d="M242.79,50c-1.38,3.49-2.61,7.08-4.14,10.5-.37.83-.69,1.58-1.67,1.68a25.07,25.07,0,0,1-5.51-.6c-3.51-.46-7.06-1.11-10.59-1.36s-6.11,1.68-8.16,4.49c-2.91,4-5.38,8.91-9.6,11.72-2.42,1.62-5,1.86-7.81,2a23.23,23.23,0,0,0-9,2.16,21.59,21.59,0,0,0-11.42,14.09c-.75,3.12,4.07,4.46,4.83,1.33a16.67,16.67,0,0,1,9.44-11.25c2.59-1.15,5.24-1.24,8-1.43a16.92,16.92,0,0,0,8.63-2.7c4.56-3.11,7.42-8,10.52-12.4a9.51,9.51,0,0,1,2.27-2.65c1.19-.76,2.78-.34,4.09-.17l11.24,1.47a10.88,10.88,0,0,0,5.32-.14A6.82,6.82,0,0,0,243,63c1.71-3.79,3.09-7.75,4.61-11.62a2.52,2.52,0,0,0-1.75-3.07A2.55,2.55,0,0,0,242.79,50Z"/><path class="cls-1" d="M189.82,83.77a53,53,0,0,1,3.41,5.58c.49.93,1,1.88,1.38,2.84.12.26.23.52.34.78-.24-.55.11.28.15.37.21.53.41,1,.61,1.58a2.5,2.5,0,1,0,4.82-1.33,53.17,53.17,0,0,0-6.4-12.34,2.56,2.56,0,0,0-3.42-.9,2.53,2.53,0,0,0-.89,3.42Z"/></svg>