<svg id="Layer_1" data-name="Layer 1" xmlns="http://www.w3.org/2000/svg" viewBox="0 0 360 360"><defs><style>.cls-1{fill:#231f20;}</style></defs><path class="cls-1" d="M290.19,188.61a85.65,85.65,0,0,0,20.3-42,101,101,0,0,0-2.63-47.14,106.15,106.15,0,0,0-23.91-41,130.44,130.44,0,0,0-38.44-28.34A144.15,144.15,0,0,0,199.1,16.45a147.08,147.08,0,0,0-48.48,2.33,135,135,0,0,0-44.37,18.15A118.76,118.76,0,0,0,70.48,72.44c-10,15.51-15.8,33.66-15.65,52.15A81.24,81.24,0,0,0,60,152.75a116.21,116.21,0,0,0,13.7,24.79c2.66,3.81,5.43,7.54,8.2,11.27a2.57,2.57,0,0,0,3.42.89,2.51,2.51,0,0,0,.9-3.42c-5.54-7.43-11.08-14.9-15.68-23A80.47,80.47,0,0,1,61,137.8c-3.18-17.6,0-36.06,7.74-52.08A109.89,109.89,0,0,1,100.19,47.3a125.39,125.39,0,0,1,40.72-20.83,141.65,141.65,0,0,1,46.2-5.95,139.51,139.51,0,0,1,45.52,9.38,130.44,130.44,0,0,1,39.19,23.7,107.85,107.85,0,0,1,27.33,36.65A95.28,95.28,0,0,1,307,134.36a85.43,85.43,0,0,1-13.69,42.2,71.9,71.9,0,0,1-6.63,8.51c-2.15,2.39,1.38,5.93,3.54,3.54Z"/><path class="cls-1" d="M287,190.68c7.84,2.6,15.83,5,23.44,8.18l.6-4.57L279,203.61c-3.08.9-1.77,5.73,1.33,4.82l32.08-9.32c1.86-.54,2.68-3.68.6-4.57-8-3.39-16.38-5.95-24.64-8.68-3.07-1-4.38,3.82-1.33,4.82Z"/><path class="cls-1" d="M82.78,187.18c-5.77,1.31-11.57,2.52-17.31,3.94-4.8,1.19-9.66,2.93-13.13,6.61a2.52,2.52,0,0,0,1.1,4.18q8.58,2,17.25,3.58,4.22.76,8.45,1.43c1.45.23,2.9.45,4.35.65l2.18.31c.3,0,.86.27.75,0l-.34-1.26v-.16a2.52,2.52,0,0,0,1.74,3.08,2.57,2.57,0,0,0,3.08-1.75,3.42,3.42,0,0,0-1.72-4.06,12.65,12.65,0,0,0-4.6-1q-5-.72-9.91-1.58-10-1.74-19.9-4l1.1,4.18c3.08-3.26,7.46-4.5,11.69-5.51,5.5-1.31,11-2.51,16.55-3.76,3.13-.71,1.81-5.53-1.33-4.82Z"/><path class="cls-1" d="M85.43,205.88Q60.22,248.6,38.59,293.33q-6,12.51-11.8,25.17A2.54,2.54,0,0,0,29,322.26c18.51,2.15,37-2.38,55.54-2.16s37.07,3.27,55.69,3.26,37-3.15,55.54-3.42c18.8-.29,37.58,1.22,56.38.25,20.89-1.08,41.6-4.26,62.25-7.42,2-.32,2.15-2.91,1.11-4.18-3.95-4.81-5.66-11-7-16.93-1.65-7-3.21-14.08-5-21.08-3.69-14.34-7.91-28.55-12.32-42.69-2.54-8.13-5.14-16.24-7.74-24.35-1-3-5.81-1.75-4.82,1.33,4.66,14.55,9.33,29.1,13.62,43.76,4.22,14.37,7.89,28.85,11.24,43.44,1.64,7.18,3.8,14.27,8.54,20.05L313,308c-18.38,2.81-36.78,5.62-55.35,6.9s-37.13.15-55.73.06c-9.41-.05-18.76.46-28.13,1.27-9.14.8-18.28,1.75-27.46,2.07-18.47.64-36.76-2.15-55.17-3A219.24,219.24,0,0,0,60,316.48c-10.32,1-20.71,2-31.06.78L31.11,321q20.53-45.16,44.78-88.52,6.78-12.13,13.86-24.11c1.64-2.78-2.69-5.3-4.32-2.52Z"/><path class="cls-1" d="M182.36,93c-1.66,2.08-1.25,5.25.25,7.44s3.86,3.62,6.19,4.89c28,15.35,60.83,18.59,92.42,23.41a4.87,4.87,0,0,1,2.55.9,4.23,4.23,0,0,1,1.08,1.88c2.54,7.79-2.11,15.92-6.57,22.79-5.51,8.51-11.37,17.35-20.22,22.31-7.27,4.07-15.81,5.08-24.13,5.51s-17.08.24-24.24-4c-6.06-3.57-10.26-9.67-13.1-16.1s-4.51-13.32-6.74-20-5-13.14-6.52-20-1.62-14.28,1.38-20.62"/><path class="cls-1" d="M180.2,91.75c-3,4.09-.87,9.67,2.65,12.64,3.73,3.15,8.52,5.21,12.92,7.22a167,167,0,0,0,28.47,9.76c9.77,2.46,19.7,4.25,29.65,5.81,4.95.78,9.92,1.51,14.89,2.23l7.64,1.13,3.49.52a12.61,12.61,0,0,1,1.82.32c.51.17.41,0,.56.43,1.6,4.43.42,9.1-1.53,13.22a96.47,96.47,0,0,1-7.51,12.4c-5.06,7.52-11,15-19.58,18.58a49,49,0,0,1-14,3.22,97,97,0,0,1-14.66.48,31.1,31.1,0,0,1-13.48-3.4,26.8,26.8,0,0,1-9.23-8.95c-5.59-8.58-7.49-18.87-10.85-28.4s-7.78-19.43-6.39-29.74a23,23,0,0,1,1.84-6.51,2.57,2.57,0,0,0-.9-3.42,2.53,2.53,0,0,0-3.42.9c-4.62,10-2.59,21,.82,31.06,1.79,5.25,3.79,10.42,5.42,15.72a150.67,150.67,0,0,0,5.45,15.91c3.87,8.94,10.26,16.74,19.73,19.93a46.55,46.55,0,0,0,15.07,2,106.35,106.35,0,0,0,15.64-1.21,43.75,43.75,0,0,0,14.81-4.9,42.66,42.66,0,0,0,10.92-9.2,107.9,107.9,0,0,0,8.5-11.55c2.88-4.4,5.78-8.84,7.61-13.8a23.8,23.8,0,0,0,1.54-7.45,14.69,14.69,0,0,0-1.47-7.44c-1.48-2.6-4.21-2.84-6.88-3.24s-5.23-.78-7.85-1.16c-10.3-1.5-20.59-3-30.81-4.92a220.48,220.48,0,0,1-30.17-7.69,136.37,136.37,0,0,1-14.17-5.68c-2.37-1.12-4.71-2.3-7-3.57-1.84-1-3.86-2.16-5.05-4a4,4,0,0,1-.16-4.76,2.51,2.51,0,0,0-.89-3.42,2.56,2.56,0,0,0-3.42.9Z"/><path class="cls-1" d="M160.11,91.28A11.68,11.68,0,0,1,158.9,106a22.55,22.55,0,0,1-6.92,4.14l-76.36,34a5.29,5.29,0,0,0-2.36,1.64c-1.08,1.6-.12,3.74.87,5.41,7,11.78,15.68,23.64,28.54,28.32,12,4.37,25.61,1.57,37.17-3.9a39.69,39.69,0,0,0,10.88-7.06c5.3-5.11,8.17-12.23,10.09-19.33a99,99,0,0,0,1.1-47.08"/><path class="cls-1" d="M158,92.54a9.37,9.37,0,0,1,.89,9.25c-1.8,3.9-6.29,5.38-9.95,7l-28.63,12.77L91.63,134.34l-14.32,6.38c-2,.89-4.39,1.59-5.81,3.34-1.71,2.09-1.32,4.73-.28,7a45.86,45.86,0,0,0,3.1,5.28c1.09,1.73,2.22,3.44,3.41,5.11a75.33,75.33,0,0,0,8.18,9.9c6,6,13.48,10.65,21.94,12.15,9.15,1.62,18.57.1,27.21-3.14s16.93-7.76,22-15.72c4.92-7.65,7.16-17.12,8.47-26a103.65,103.65,0,0,0,.06-29.95q-.52-3.61-1.31-7.18c-.69-3.14-5.51-1.81-4.82,1.33a97.81,97.81,0,0,1,1.93,28.35A94,94,0,0,1,159.31,145a64.66,64.66,0,0,1-3.83,12.17,30.75,30.75,0,0,1-6.84,10,40.08,40.08,0,0,1-11,6.82c-7.84,3.57-16.58,5.78-25.23,5.14-16.8-1.24-27.68-15-35.68-28.45a13,13,0,0,1-1.18-2.24,2.11,2.11,0,0,1-.2-1.21s.11-.18,0,0,.16-.14.28-.21a44.39,44.39,0,0,1,6.3-2.9l13.87-6.18,27.72-12.36L151,113.32c4.09-1.82,8.39-3.49,11.12-7.23a14.34,14.34,0,0,0,2.3-11,12.9,12.9,0,0,0-2.12-5,2.56,2.56,0,0,0-3.42-.9,2.52,2.52,0,0,0-.89,3.42Z"/><path class="cls-1" d="M171.19,188.82a253.52,253.52,0,0,0-31.51,35.25c6.24,0,12.09-3,17.24-6.52s9.91-7.67,15.44-10.54a46.31,46.31,0,0,0,23.43,17.81,54.51,54.51,0,0,0-10.88-17.33c-2.43-2.6-5.11-5-7.47-7.63A43.7,43.7,0,0,1,169.52,187"/><path class="cls-1" d="M169.43,187.05a259.11,259.11,0,0,0-31.9,35.76c-1.16,1.56.4,3.79,2.15,3.76,13.69-.21,22.66-11.46,33.94-17.4l-3.42-.9a49.43,49.43,0,0,0,24.92,19c1.7.58,3.77-1.32,3.08-3.07a58.46,58.46,0,0,0-12.48-19.44,107.4,107.4,0,0,1-8.18-8.62,41.37,41.37,0,0,1-5.61-9.76,2.58,2.58,0,0,0-3.08-1.74,2.51,2.51,0,0,0-1.74,3.07,46.55,46.55,0,0,0,5.72,10.42,77.44,77.44,0,0,0,8,8.84,54.1,54.1,0,0,1,12.51,18.56l3.07-3.08a43.81,43.81,0,0,1-21.93-16.67,2.56,2.56,0,0,0-3.42-.89c-5.47,2.88-10.18,6.92-15.26,10.41-4.8,3.3-10.19,6.22-16.16,6.31l2.16,3.76A252.74,252.74,0,0,1,173,190.59c2.36-2.2-1.18-5.73-3.53-3.54Z"/><path class="cls-1" d="M70.16,280q-6.33,10.45-11.92,21.32-2.77,5.38-5.35,10.85c-.88,1.86-1.75,3.72-2.58,5.6a4.09,4.09,0,0,0-.46,2.9A3.07,3.07,0,0,0,52,322.82a2.49,2.49,0,0,0,2.44-.64l.11-.14a2.58,2.58,0,0,0,0-3.54,2.53,2.53,0,0,0-3.54,0l-.11.14L53.3,318l-.14,0,1.11.65.36.42v1.33a10.89,10.89,0,0,1,1-2.25c.36-.8.72-1.58,1.09-2.37.77-1.65,1.56-3.29,2.35-4.93q2.34-4.8,4.82-9.52,5-9.56,10.6-18.8c1.67-2.76-2.65-5.28-4.31-2.52Z"/><path class="cls-1" d="M114.08,257.72a362.16,362.16,0,0,1-22.32,52c-1,2-3.77,5.3-1.3,7.18a2.93,2.93,0,0,0,3.71-.24,2.68,2.68,0,0,0,0-3.83,2.5,2.5,0,0,0-3.53,0,2.55,2.55,0,0,0,0,3.53l.09.12L90.13,314l0,.11.64-1.11-.1.08,1.1-.64.9,0,1.1.65-.07-.08.65,2.43a13.28,13.28,0,0,1,1.1-2Q96.2,312,97,310.58q1.35-2.61,2.66-5.23,2.73-5.48,5.26-11,5-11,9.33-22.25,2.47-6.46,4.7-13c1-3.05-3.79-4.36-4.82-1.33Z"/><path class="cls-1" d="M164.83,238.19c-.07,10.11-1.05,20.18-1.92,30.24l-2.63,30.21L158.78,316a2.51,2.51,0,0,0,2.5,2.5,2.55,2.55,0,0,0,2.5-2.5c1.75-20.13,3.65-40.26,5.22-60.41.45-5.78.79-11.57.83-17.37,0-3.22-5-3.22-5,0Z"/><path class="cls-1" d="M201.71,254.07c-.06,0-1.48-.09-1.48,0a2.61,2.61,0,0,1,.19.3,5.15,5.15,0,0,0,.36,1l.9,3q.88,3,1.73,6.06c1.13,4.05,2.19,8.11,3.21,12.18q3.06,12.36,5.43,24.86,1.32,7,2.43,14.09a2.51,2.51,0,0,0,3.07,1.74,2.55,2.55,0,0,0,1.75-3.07,451,451,0,0,0-12-54.39,53.11,53.11,0,0,0-2.35-7.57c-1.08-2.36-3.32-3.6-5.78-2.51a2.52,2.52,0,0,0-.89,3.42,2.56,2.56,0,0,0,3.42.9Z"/><path class="cls-1" d="M248.12,261.73a59.41,59.41,0,0,1,5.26,12.07l4.68,13.59L262.77,301a73.44,73.44,0,0,1,3.63,13.33,2.52,2.52,0,0,0,3.07,1.75,2.58,2.58,0,0,0,1.75-3.08,73.44,73.44,0,0,0-3.63-13.33l-4.87-14.12q-2.4-7-4.81-14a62.76,62.76,0,0,0-5.47-12.41c-1.69-2.73-6-.23-4.32,2.52Z"/></svg>