<svg id="Layer_1" data-name="Layer 1" xmlns="http://www.w3.org/2000/svg" viewBox="0 0 360 360"><defs><style>.cls-1{fill:#231f20;}</style></defs><path class="cls-1" d="M274.23,165.37c5.51-4.43,11.07-8.93,15.54-14.46a42.35,42.35,0,0,0,9-20.07,104.8,104.8,0,0,0,.81-23.55,37.25,37.25,0,0,0-2.36-11.67A38.88,38.88,0,0,0,291,85.69a154.58,154.58,0,0,0-33-30.15c-13.06-8.72-27.77-14.25-42.93-18a249.82,249.82,0,0,0-49.47-7.36A184.08,184.08,0,0,0,117.44,34c-14.48,3.25-28.58,8.9-40.39,18A80.77,80.77,0,0,0,52.26,84.67a78.35,78.35,0,0,0-5.52,40.39,81,81,0,0,0,22.54,46.53c2.27,2.29,5.8-1.24,3.54-3.54a76.05,76.05,0,0,1-19.31-34.19,73.77,73.77,0,0,1,.44-39,76.48,76.48,0,0,1,19.47-33C83.27,52.06,95.8,45.5,109,41.42,123.39,37,138.53,35.19,153.55,35a227.52,227.52,0,0,1,48,4.62c15,3,30,7,43.59,14.12C257.81,60.35,269,69.5,278.89,79.76c2.5,2.58,4.95,5.23,7.3,8a38.51,38.51,0,0,1,6,8.82c3.11,6.69,2.67,14.84,2.56,22s-.74,14.71-3.85,21.32C288,146,283.42,151,278.42,155.4c-2.51,2.23-5.11,4.34-7.72,6.44a2.51,2.51,0,0,0,0,3.53,2.55,2.55,0,0,0,3.53,0Z"/><path class="cls-1" d="M267.72,163.89c-.52,4.1,3.88,6.5,6.49,8.79a53.75,53.75,0,0,1,8,8.62l2.16-3.76q-11.49.86-23,.65c-3.21-.06-3.21,4.94,0,5q11.52.21,23-.65c1.69-.13,3.37-2.1,2.15-3.76a60,60,0,0,0-7.52-8.55c-1.33-1.23-2.73-2.37-4.15-3.49-1-.8-2.24-1.65-2.09-2.85a2.51,2.51,0,0,0-2.5-2.5,2.56,2.56,0,0,0-2.5,2.5Z"/><path class="cls-1" d="M72.66,168.84C67,168,61.88,170.59,57,173.07a112.13,112.13,0,0,0-13.78,8.33c-1.65,1.16-1.65,4,.59,4.57a82,82,0,0,0,15,2.13c4,.18,8.46-.41,12,1.85,2.71,1.75,5.22-2.57,2.53-4.31-3.9-2.52-8.58-2.37-13-2.49a74.37,74.37,0,0,1-15.15-2l.6,4.57A111,111,0,0,1,58.29,178c2.1-1.11,4.24-2.21,6.45-3.11a12.87,12.87,0,0,1,6.59-1.26,2.58,2.58,0,0,0,3.07-1.75,2.51,2.51,0,0,0-1.74-3.07Z"/><path class="cls-1" d="M69,185A101,101,0,0,0,54,226.66a96.5,96.5,0,0,0-.76,12.49c0,2.42,3.45,3.47,4.66,1.26A79.58,79.58,0,0,1,94,206.63a75.67,75.67,0,0,1,13.39-4.77l-3.07-3.08a29,29,0,0,0,1.56,15.14,2.54,2.54,0,0,0,3.67,1.5L122,207.86l6.33-3.85c.34-.2,1.28-.54,1.44-.86l.1-.05c.35-.13.13-.19-.67-.2,0,0,.16.43.1.19a7.23,7.23,0,0,0,.69,1.32l.88,1.74,3.33,6.54c1.12,2.21,2.46,4.54,5.34,4.06a14.54,14.54,0,0,0,3.22-1.2l3.41-1.45,6.83-2.92,15.24-6.51-3.42-.9c2.71,3.77,5.77,7.83,9.43,10.73a5,5,0,0,0,6.76,0c1.68-1.46,3.1-3.2,4.83-4.63.8-.66,1.64-1.29,2.5-1.87.35-.24.71-.45,1.08-.66s.29-.09.47,0c-.36-.14.46.36.23.17a5.21,5.21,0,0,1,.69.72c.51.59,1,1.36,1.58,2,2.67,3.39,6.6,4.17,10.51,2.46s5.89-4.87,8.57-7.79a9.29,9.29,0,0,1,4-2.93,6.32,6.32,0,0,1,4.61.54c7.53,3.74,9.24,14,9.94,21.49,1.07,11.35,1.53,22.79,2.26,34.18a2.53,2.53,0,0,0,3.76,2.16c9.27-5.61,12.77-16.29,16.72-25.74,2.34-5.62,5.13-11,7.43-16.66a58.81,58.81,0,0,0,4.42-18.42c.5-7.57-.46-15.14-1.4-22.64a2.58,2.58,0,0,0-2.5-2.5,2.51,2.51,0,0,0-2.5,2.5,141.41,141.41,0,0,1,1.53,19.28,52.78,52.78,0,0,1-3.4,18c-2,5.4-4.65,10.54-7,15.81-2.06,4.68-3.77,9.51-6,14.1s-5.24,9.22-9.82,12l3.76,2.16c-.67-10.33-1.26-20.66-2-31-.62-8.78-1.78-18.75-8.07-25.48-2.81-3-6.91-5.37-11.14-4.92s-7.29,3.47-10,6.68a17.92,17.92,0,0,1-4,4c-1.18.75-2.8,1.54-4.17,1.09s-2-1.8-2.79-2.8A7.92,7.92,0,0,0,191,202.4c-2.62-.62-4.79.92-6.77,2.41a48.07,48.07,0,0,0-5.92,5.3,5.64,5.64,0,0,1-.53.56l-.28.26c-.19.06-.15.06.12,0,.59.33-.14-.29-.07-.2a7.54,7.54,0,0,0-.59-.52q-1.45-1.4-2.82-2.88a64.4,64.4,0,0,1-5-6.09,2.6,2.6,0,0,0-3.42-.9l-13.43,5.73L145.48,209c-2.1.9-4.41,1.64-6.41,2.73-1.25.69.71,0,.48.39,0,0-.38-.68-.36-.64-.27-.51-.52-1-.78-1.53l-1.66-3.27c-1.05-2.07-2-4.3-3.21-6.26a4.44,4.44,0,0,0-6.09-1.69c-2.16,1.08-4.21,2.53-6.28,3.78L107,211.1l3.67,1.49a24.2,24.2,0,0,1-1.56-12.48c.28-1.84-1.07-3.59-3.08-3.07a84.09,84.09,0,0,0-44,28.3,83,83,0,0,0-8.44,12.55l4.66,1.26a95.67,95.67,0,0,1,15-51.6C75,184.83,70.69,182.32,69,185Z"/><path class="cls-1" d="M93.81,267.78q-.59-20.92.7-41.84a2.51,2.51,0,0,0-1.83-2.41c-5.15-.75-8.25,3.51-11.16,7.06q-4.81,5.88-9.2,12.09c-5.27,7.49-10.19,15.68-11.46,24.91-.63,4.6-.37,9.47,1.94,13.61s6.31,6.76,10.07,9.27a108.56,108.56,0,0,0,24.85,12.18c18.18,6.25,37.79,7.78,56.81,5.42a158.23,158.23,0,0,0,29.41-6.54c8.58-2.79,17.25-6.23,23-13.49,5.17-6.49,7.81-14.5,9.41-22.55.84-4.2,1.49-8.47,1.91-12.73a36.32,36.32,0,0,0-.68-13,21.07,21.07,0,0,0-2.68-6c-.95-1.46-3.44-1.78-4.31,0a103.94,103.94,0,0,1-31.33,37.65l3.68,1.5L176,251.13a2.53,2.53,0,0,0-4.18-1.1l-10.24,9.1c-.85.75-1.69,1.53-2.56,2.27-.16.14-.76.46-.85.63,0-.06-.26.24,0,.11s.23.27-.07-.13a21,21,0,0,1-2.52-4.45c-1.45-3.4-2.58-7-5.1-9.83a4.27,4.27,0,0,0-6.18-.54,67.53,67.53,0,0,0-4.76,4.81l-11.14,11.39,4.18,1.1-4.5-15.09c-.42-1.41-2.33-2.49-3.67-1.5l-17.52,13L110.7,263a35.8,35.8,0,0,0-1.63-12c-.53-1.7-2.87-2.57-4.17-1.11L90.69,265.81c-2.14,2.39,1.38,5.94,3.54,3.54l3.76-4.2c2.14-2.39-1.38-5.94-3.54-3.54l-3.76,4.2,3.54,3.54,14.2-15.87-4.18-1.1A31.3,31.3,0,0,1,105.7,263c-.07,1.76,2.22,3.29,3.76,2.16l17.51-13-3.67-1.49,4.5,15.09a2.52,2.52,0,0,0,4.18,1.1l8.18-8.36,4-4.09,2.09-2.14c.42-.43,1-1.31,1.58-1.39H146.5c.92.13,1.88,2.4,2.28,3.21.69,1.38,1.23,2.83,1.82,4.25,1.16,2.86,2.62,7,5.65,8.31,3.9,1.74,7.43-2.74,10-5l9.15-8.13-4.18-1.1,6.93,21.79c.45,1.39,2.31,2.5,3.68,1.49a109,109,0,0,0,33.11-39.45h-4.31c4.36,6.66,3,15.31,1.84,22.72s-2.74,14.94-6.42,21.51a29.3,29.3,0,0,1-6.83,8.31,38,38,0,0,1-10.76,5.84A149.21,149.21,0,0,1,161.8,302a127.09,127.09,0,0,1-53.66-1.43,107.9,107.9,0,0,1-23.69-9,101.18,101.18,0,0,1-10.83-6.59c-3.32-2.31-6.47-4.86-7.56-8.93-2.12-7.92,1.76-16.66,5.71-23.35A145.26,145.26,0,0,1,87.71,231c.76-.86,2.29-2.79,3.64-2.6l-1.84-2.41q-1.28,20.9-.7,41.84c.09,3.21,5.09,3.22,5,0Z"/><path class="cls-1" d="M230.53,89.23c-16.81.41-33,12-38,28.08s2,35.28,16.62,43.62c6.85,3.91,15.29,5.44,22.77,3a32.44,32.44,0,0,0,11-6.62,44.93,44.93,0,0,0,13.92-21.42,39.07,39.07,0,0,0-32.1-49.16"/><path class="cls-1" d="M230.53,86.73a44.86,44.86,0,0,0-37,22.1c-7.4,12.94-6.51,29.4,1.51,41.86a37.32,37.32,0,0,0,17.06,14.43,29.37,29.37,0,0,0,25.58-1.05,47,47,0,0,0,17.66-18.18,41.86,41.86,0,0,0-4.67-47.59,42.24,42.24,0,0,0-19.72-12.76,39.74,39.74,0,0,0-5.58-1.24,2.58,2.58,0,0,0-3.08,1.75A2.52,2.52,0,0,0,224,89.12a36.69,36.69,0,0,1,29.35,49.16,43.42,43.42,0,0,1-13.1,17.94,27.53,27.53,0,0,1-10,5.58,23.64,23.64,0,0,1-11.37.22,31.08,31.08,0,0,1-17.26-10.74c-8.14-9.81-10.56-24.19-5.71-36,5-12.25,17-21,30-23.12a33.64,33.64,0,0,1,4.7-.42c3.21-.1,3.23-5.1,0-5Z"/><path class="cls-1" d="M106.32,84.49c.05-.93-1.13-1.37-2.07-1.45-6-.51-12.09,1.8-16.86,5.53a43.59,43.59,0,0,0-11.21,14.12c-5.61,10.56-8.33,23.92-2.28,34.23,3.2,5.44,8.51,9.39,14.28,12,10.22,4.51,22.83,4.68,32-1.66,5.6-3.87,9.5-9.77,12.32-16,5.15-11.36,6.81-25.24.51-36-6.56-11.21-21.64-16.56-33.8-12"/><path class="cls-1" d="M108.82,84.49c-.4-5-7-4.21-10.47-3.62a27.7,27.7,0,0,0-11.55,5C80.1,90.83,75.25,98.07,72,105.65s-5,15.85-3.44,24,6.77,14.6,13.64,18.88c13.59,8.45,32.79,8.67,44.29-3.46,5.54-5.84,9.28-13.57,11.38-21.28s2.58-16.39-.08-24.12A29.81,29.81,0,0,0,124,83.21a32,32,0,0,0-20.67-3.66,25.75,25.75,0,0,0-4.8,1.28,2.56,2.56,0,0,0-1.74,3.07,2.52,2.52,0,0,0,3.07,1.75c10.95-4,24.39.27,30.63,10.25,7.56,12.13,3.79,28.49-3.26,39.94-3.58,5.82-8.63,10.55-15.27,12.55a32.85,32.85,0,0,1-20-.71c-6.26-2.14-12.37-6.09-15.82-11.85-3.54-5.91-3.81-13.08-2.36-19.67a50.33,50.33,0,0,1,9-19.38c4.23-5.61,10.43-10.45,17.62-11.2a19.31,19.31,0,0,1,2.52-.1c.37,0,1,.09,1.22.06-.19,0,.28,0,.25.08h0c-.41-.12-.61-.49-.6-1.12a2.56,2.56,0,0,0,2.5,2.5,2.52,2.52,0,0,0,2.5-2.5Z"/><path class="cls-1" d="M156.15,156.7a21.67,21.67,0,0,0-11.59-6.85A59.48,59.48,0,0,0,131,148.5c-.43,5.66,2.6,11,6.12,15.45s7.65,8.52,10.1,13.64a91.19,91.19,0,0,0,34.07-16.89c.72-.58,1.51-1.32,1.44-2.24a2.51,2.51,0,0,0-1.28-1.73c-2.67-1.81-6.11-1.94-9.33-1.86a96.28,96.28,0,0,0-21.42,3l1.64-.85"/><path class="cls-1" d="M157.92,154.93c-6.59-7.86-17.41-8.76-26.95-8.93a2.55,2.55,0,0,0-2.5,2.5c-.79,12.81,11.51,20,16.56,30.36a2.51,2.51,0,0,0,2.82,1.14,94,94,0,0,0,28.4-12.59q3.31-2.21,6.44-4.68c2.13-1.69,3.47-4.34,1.54-6.78-1.57-2-4.38-2.93-6.8-3.3a38.79,38.79,0,0,0-8-.17,101.34,101.34,0,0,0-19.43,3l1.92,4.57,1.64-.86c2.85-1.48.33-5.8-2.53-4.31l-1.63.85c-2.56,1.33-.77,5.26,1.93,4.57a92.47,92.47,0,0,1,14.5-2.55c2.48-.23,5-.38,7.46-.39a13.94,13.94,0,0,1,5.76.9c.29.13.82.65,1.1.63,0,0,.14.16.16.15s-.13-.82,0-.82c-.17,0-.78.7-1,.85-.45.36-.91.71-1.37,1.05-1.78,1.34-3.61,2.6-5.49,3.8a90.12,90.12,0,0,1-11.72,6.34,88.26,88.26,0,0,1-14.22,4.93l2.83,1.15c-2.48-5.07-6.45-9.13-10-13.48-3.3-4.08-6.25-8.92-5.92-14.35L131,151c8.27.14,17.68.63,23.42,7.46a2.5,2.5,0,0,0,3.53,0,2.54,2.54,0,0,0,0-3.53Z"/></svg>